<svg xmlns="http://www.w3.org/2000/svg" xmlns:xlink="http://www.w3.org/1999/xlink" width="500" zoomAndPan="magnify" viewBox="0 0 375 374.999991" height="500" preserveAspectRatio="xMidYMid meet" version="1.0"><defs><filter x="0%" y="0%" width="100%" height="100%" id="ad35284ecc"><feColorMatrix values="0 0 0 0 1 0 0 0 0 1 0 0 0 0 1 0 0 0 1 0" color-interpolation-filters="sRGB"/></filter><g/><clipPath id="9e4b167ecb"><path d="M 0 0 L 375 0 L 375 375 L 0 375 Z M 0 0 " clip-rule="nonzero"/></clipPath><linearGradient x1="43.486318" gradientTransform="matrix(1.142595, 0, 0, 1.144467, -49.687264, 143.856334)" y1="51.5" x2="371.686447" gradientUnits="userSpaceOnUse" y2="51.5" id="68075186bd"><stop stop-opacity="1" stop-color="rgb(54.899597%, 32.159424%, 100%)" offset="0"/><stop stop-opacity="1" stop-color="rgb(55.012512%, 32.060242%, 100%)" offset="0.015625"/><stop stop-opacity="1" stop-color="rgb(55.323792%, 31.788635%, 100%)" offset="0.0195312"/><stop stop-opacity="1" stop-color="rgb(55.52063%, 31.616211%, 100%)" offset="0.0234375"/><stop stop-opacity="1" stop-color="rgb(55.717468%, 31.443787%, 100%)" offset="0.0273438"/><stop stop-opacity="1" stop-color="rgb(55.915833%, 31.271362%, 100%)" offset="0.03125"/><stop stop-opacity="1" stop-color="rgb(56.112671%, 31.098938%, 100%)" offset="0.0351562"/><stop stop-opacity="1" stop-color="rgb(56.311035%, 30.926514%, 100%)" offset="0.0390625"/><stop stop-opacity="1" stop-color="rgb(56.507874%, 30.754089%, 100%)" offset="0.0429688"/><stop stop-opacity="1" stop-color="rgb(56.706238%, 30.581665%, 100%)" offset="0.046875"/><stop stop-opacity="1" stop-color="rgb(56.903076%, 30.409241%, 100%)" offset="0.0507813"/><stop stop-opacity="1" stop-color="rgb(57.10144%, 30.236816%, 100%)" offset="0.0546875"/><stop stop-opacity="1" stop-color="rgb(57.298279%, 30.064392%, 100%)" offset="0.0585938"/><stop stop-opacity="1" stop-color="rgb(57.496643%, 29.891968%, 100%)" offset="0.0625"/><stop stop-opacity="1" stop-color="rgb(57.693481%, 29.719543%, 100%)" offset="0.0664062"/><stop stop-opacity="1" stop-color="rgb(57.891846%, 29.547119%, 100%)" offset="0.0703125"/><stop stop-opacity="1" stop-color="rgb(58.088684%, 29.374695%, 100%)" offset="0.0742188"/><stop stop-opacity="1" stop-color="rgb(58.285522%, 29.202271%, 100%)" offset="0.078125"/><stop stop-opacity="1" stop-color="rgb(58.482361%, 29.029846%, 100%)" offset="0.0820312"/><stop stop-opacity="1" stop-color="rgb(58.680725%, 28.857422%, 100%)" offset="0.0859375"/><stop stop-opacity="1" stop-color="rgb(58.877563%, 28.684998%, 100%)" offset="0.0898437"/><stop stop-opacity="1" stop-color="rgb(59.075928%, 28.512573%, 100%)" offset="0.09375"/><stop stop-opacity="1" stop-color="rgb(59.272766%, 28.340149%, 100%)" offset="0.0976562"/><stop stop-opacity="1" stop-color="rgb(59.47113%, 28.167725%, 100%)" offset="0.101562"/><stop stop-opacity="1" stop-color="rgb(59.667969%, 27.9953%, 100%)" offset="0.105469"/><stop stop-opacity="1" stop-color="rgb(59.866333%, 27.822876%, 100%)" offset="0.109375"/><stop stop-opacity="1" stop-color="rgb(60.063171%, 27.650452%, 100%)" offset="0.113281"/><stop stop-opacity="1" stop-color="rgb(60.261536%, 27.478027%, 100%)" offset="0.117188"/><stop stop-opacity="1" stop-color="rgb(60.458374%, 27.305603%, 100%)" offset="0.121094"/><stop stop-opacity="1" stop-color="rgb(60.656738%, 27.133179%, 100%)" offset="0.125"/><stop stop-opacity="1" stop-color="rgb(60.853577%, 26.960754%, 100%)" offset="0.128906"/><stop stop-opacity="1" stop-color="rgb(61.051941%, 26.78833%, 100%)" offset="0.132812"/><stop stop-opacity="1" stop-color="rgb(61.248779%, 26.615906%, 100%)" offset="0.136719"/><stop stop-opacity="1" stop-color="rgb(61.445618%, 26.443481%, 100%)" offset="0.140625"/><stop stop-opacity="1" stop-color="rgb(61.642456%, 26.271057%, 100%)" offset="0.144531"/><stop stop-opacity="1" stop-color="rgb(61.84082%, 26.098633%, 100%)" offset="0.148438"/><stop stop-opacity="1" stop-color="rgb(62.037659%, 25.926208%, 100%)" offset="0.152344"/><stop stop-opacity="1" stop-color="rgb(62.236023%, 25.753784%, 100%)" offset="0.15625"/><stop stop-opacity="1" stop-color="rgb(62.432861%, 25.58136%, 100%)" offset="0.160156"/><stop stop-opacity="1" stop-color="rgb(62.631226%, 25.410461%, 100%)" offset="0.164063"/><stop stop-opacity="1" stop-color="rgb(62.828064%, 25.238037%, 100%)" offset="0.167969"/><stop stop-opacity="1" stop-color="rgb(63.026428%, 25.065613%, 100%)" offset="0.171875"/><stop stop-opacity="1" stop-color="rgb(63.223267%, 24.893188%, 100%)" offset="0.175781"/><stop stop-opacity="1" stop-color="rgb(63.421631%, 24.720764%, 100%)" offset="0.179688"/><stop stop-opacity="1" stop-color="rgb(63.618469%, 24.54834%, 100%)" offset="0.183594"/><stop stop-opacity="1" stop-color="rgb(63.816833%, 24.375916%, 100%)" offset="0.1875"/><stop stop-opacity="1" stop-color="rgb(64.013672%, 24.203491%, 100%)" offset="0.191406"/><stop stop-opacity="1" stop-color="rgb(64.212036%, 24.031067%, 100%)" offset="0.195313"/><stop stop-opacity="1" stop-color="rgb(64.408875%, 23.858643%, 100%)" offset="0.199219"/><stop stop-opacity="1" stop-color="rgb(64.605713%, 23.686218%, 100%)" offset="0.203125"/><stop stop-opacity="1" stop-color="rgb(64.802551%, 23.513794%, 100%)" offset="0.207031"/><stop stop-opacity="1" stop-color="rgb(65.000916%, 23.34137%, 100%)" offset="0.210938"/><stop stop-opacity="1" stop-color="rgb(65.197754%, 23.168945%, 100%)" offset="0.214844"/><stop stop-opacity="1" stop-color="rgb(65.396118%, 22.996521%, 100%)" offset="0.21875"/><stop stop-opacity="1" stop-color="rgb(65.592957%, 22.824097%, 100%)" offset="0.222656"/><stop stop-opacity="1" stop-color="rgb(65.791321%, 22.651672%, 100%)" offset="0.226562"/><stop stop-opacity="1" stop-color="rgb(65.988159%, 22.479248%, 100%)" offset="0.230469"/><stop stop-opacity="1" stop-color="rgb(66.186523%, 22.306824%, 100%)" offset="0.234375"/><stop stop-opacity="1" stop-color="rgb(66.383362%, 22.134399%, 100%)" offset="0.238281"/><stop stop-opacity="1" stop-color="rgb(66.581726%, 21.961975%, 100%)" offset="0.242188"/><stop stop-opacity="1" stop-color="rgb(66.778564%, 21.789551%, 100%)" offset="0.246094"/><stop stop-opacity="1" stop-color="rgb(66.976929%, 21.617126%, 100%)" offset="0.25"/><stop stop-opacity="1" stop-color="rgb(67.173767%, 21.444702%, 100%)" offset="0.253906"/><stop stop-opacity="1" stop-color="rgb(67.370605%, 21.272278%, 100%)" offset="0.257812"/><stop stop-opacity="1" stop-color="rgb(67.567444%, 21.099854%, 100%)" offset="0.261719"/><stop stop-opacity="1" stop-color="rgb(67.765808%, 20.927429%, 100%)" offset="0.265625"/><stop stop-opacity="1" stop-color="rgb(67.962646%, 20.755005%, 100%)" offset="0.269531"/><stop stop-opacity="1" stop-color="rgb(68.161011%, 20.582581%, 100%)" offset="0.273438"/><stop stop-opacity="1" stop-color="rgb(68.357849%, 20.410156%, 100%)" offset="0.277344"/><stop stop-opacity="1" stop-color="rgb(68.556213%, 20.237732%, 100%)" offset="0.28125"/><stop stop-opacity="1" stop-color="rgb(68.753052%, 20.065308%, 100%)" offset="0.285156"/><stop stop-opacity="1" stop-color="rgb(68.951416%, 19.892883%, 100%)" offset="0.289062"/><stop stop-opacity="1" stop-color="rgb(69.148254%, 19.720459%, 100%)" offset="0.292969"/><stop stop-opacity="1" stop-color="rgb(69.346619%, 19.548035%, 100%)" offset="0.296875"/><stop stop-opacity="1" stop-color="rgb(69.543457%, 19.37561%, 100%)" offset="0.300781"/><stop stop-opacity="1" stop-color="rgb(69.741821%, 19.203186%, 100%)" offset="0.304687"/><stop stop-opacity="1" stop-color="rgb(69.93866%, 19.030762%, 100%)" offset="0.308594"/><stop stop-opacity="1" stop-color="rgb(70.137024%, 18.858337%, 100%)" offset="0.3125"/><stop stop-opacity="1" stop-color="rgb(70.333862%, 18.685913%, 100%)" offset="0.316406"/><stop stop-opacity="1" stop-color="rgb(70.530701%, 18.513489%, 100%)" offset="0.320312"/><stop stop-opacity="1" stop-color="rgb(70.727539%, 18.341064%, 100%)" offset="0.324219"/><stop stop-opacity="1" stop-color="rgb(70.925903%, 18.16864%, 100%)" offset="0.328125"/><stop stop-opacity="1" stop-color="rgb(71.122742%, 17.996216%, 100%)" offset="0.332031"/><stop stop-opacity="1" stop-color="rgb(71.321106%, 17.823792%, 100%)" offset="0.335938"/><stop stop-opacity="1" stop-color="rgb(71.517944%, 17.651367%, 100%)" offset="0.339844"/><stop stop-opacity="1" stop-color="rgb(71.716309%, 17.478943%, 100%)" offset="0.34375"/><stop stop-opacity="1" stop-color="rgb(71.913147%, 17.306519%, 100%)" offset="0.347656"/><stop stop-opacity="1" stop-color="rgb(72.111511%, 17.134094%, 100%)" offset="0.351563"/><stop stop-opacity="1" stop-color="rgb(72.30835%, 16.96167%, 100%)" offset="0.355469"/><stop stop-opacity="1" stop-color="rgb(72.506714%, 16.789246%, 100%)" offset="0.359375"/><stop stop-opacity="1" stop-color="rgb(72.703552%, 16.616821%, 100%)" offset="0.363281"/><stop stop-opacity="1" stop-color="rgb(72.901917%, 16.444397%, 100%)" offset="0.367188"/><stop stop-opacity="1" stop-color="rgb(73.098755%, 16.271973%, 100%)" offset="0.371094"/><stop stop-opacity="1" stop-color="rgb(73.297119%, 16.099548%, 100%)" offset="0.375"/><stop stop-opacity="1" stop-color="rgb(73.493958%, 15.927124%, 100%)" offset="0.378906"/><stop stop-opacity="1" stop-color="rgb(73.690796%, 15.7547%, 100%)" offset="0.382813"/><stop stop-opacity="1" stop-color="rgb(73.887634%, 15.582275%, 100%)" offset="0.386719"/><stop stop-opacity="1" stop-color="rgb(74.085999%, 15.409851%, 100%)" offset="0.390625"/><stop stop-opacity="1" stop-color="rgb(74.282837%, 15.237427%, 100%)" offset="0.394531"/><stop stop-opacity="1" stop-color="rgb(74.481201%, 15.065002%, 100%)" offset="0.398438"/><stop stop-opacity="1" stop-color="rgb(74.67804%, 14.892578%, 100%)" offset="0.402344"/><stop stop-opacity="1" stop-color="rgb(74.876404%, 14.720154%, 100%)" offset="0.40625"/><stop stop-opacity="1" stop-color="rgb(75.073242%, 14.547729%, 100%)" offset="0.410156"/><stop stop-opacity="1" stop-color="rgb(75.271606%, 14.375305%, 100%)" offset="0.414062"/><stop stop-opacity="1" stop-color="rgb(75.468445%, 14.202881%, 100%)" offset="0.417969"/><stop stop-opacity="1" stop-color="rgb(75.666809%, 14.030457%, 100%)" offset="0.421875"/><stop stop-opacity="1" stop-color="rgb(75.863647%, 13.858032%, 100%)" offset="0.425781"/><stop stop-opacity="1" stop-color="rgb(76.062012%, 13.685608%, 100%)" offset="0.429688"/><stop stop-opacity="1" stop-color="rgb(76.25885%, 13.513184%, 100%)" offset="0.433594"/><stop stop-opacity="1" stop-color="rgb(76.455688%, 13.340759%, 100%)" offset="0.4375"/><stop stop-opacity="1" stop-color="rgb(76.652527%, 13.168335%, 100%)" offset="0.441406"/><stop stop-opacity="1" stop-color="rgb(76.850891%, 12.995911%, 100%)" offset="0.445312"/><stop stop-opacity="1" stop-color="rgb(77.047729%, 12.823486%, 100%)" offset="0.449219"/><stop stop-opacity="1" stop-color="rgb(77.246094%, 12.651062%, 100%)" offset="0.453125"/><stop stop-opacity="1" stop-color="rgb(77.442932%, 12.478638%, 100%)" offset="0.457031"/><stop stop-opacity="1" stop-color="rgb(77.641296%, 12.307739%, 100%)" offset="0.460938"/><stop stop-opacity="1" stop-color="rgb(77.838135%, 12.135315%, 100%)" offset="0.464844"/><stop stop-opacity="1" stop-color="rgb(78.036499%, 11.962891%, 100%)" offset="0.46875"/><stop stop-opacity="1" stop-color="rgb(78.233337%, 11.790466%, 100%)" offset="0.472656"/><stop stop-opacity="1" stop-color="rgb(78.431702%, 11.618042%, 100%)" offset="0.476562"/><stop stop-opacity="1" stop-color="rgb(78.62854%, 11.445618%, 100%)" offset="0.480469"/><stop stop-opacity="1" stop-color="rgb(78.826904%, 11.273193%, 100%)" offset="0.484375"/><stop stop-opacity="1" stop-color="rgb(79.023743%, 11.100769%, 100%)" offset="0.488281"/><stop stop-opacity="1" stop-color="rgb(79.222107%, 10.928345%, 100%)" offset="0.492187"/><stop stop-opacity="1" stop-color="rgb(79.405212%, 10.771179%, 99.995422%)" offset="0.5"/><stop stop-opacity="1" stop-color="rgb(79.03595%, 11.329651%, 99.797058%)" offset="0.503906"/><stop stop-opacity="1" stop-color="rgb(78.485107%, 12.045288%, 99.603271%)" offset="0.507812"/><stop stop-opacity="1" stop-color="rgb(77.932739%, 12.759399%, 99.407959%)" offset="0.511719"/><stop stop-opacity="1" stop-color="rgb(77.381897%, 13.473511%, 99.214172%)" offset="0.515625"/><stop stop-opacity="1" stop-color="rgb(76.829529%, 14.187622%, 99.020386%)" offset="0.519531"/><stop stop-opacity="1" stop-color="rgb(76.278687%, 14.903259%, 98.826599%)" offset="0.523438"/><stop stop-opacity="1" stop-color="rgb(75.726318%, 15.617371%, 98.631287%)" offset="0.527344"/><stop stop-opacity="1" stop-color="rgb(75.175476%, 16.333008%, 98.4375%)" offset="0.53125"/><stop stop-opacity="1" stop-color="rgb(74.623108%, 17.047119%, 98.242188%)" offset="0.535156"/><stop stop-opacity="1" stop-color="rgb(74.072266%, 17.76123%, 98.048401%)" offset="0.539062"/><stop stop-opacity="1" stop-color="rgb(73.519897%, 18.475342%, 97.854614%)" offset="0.542969"/><stop stop-opacity="1" stop-color="rgb(72.969055%, 19.190979%, 97.660828%)" offset="0.546875"/><stop stop-opacity="1" stop-color="rgb(72.416687%, 19.90509%, 97.465515%)" offset="0.550781"/><stop stop-opacity="1" stop-color="rgb(71.865845%, 20.620728%, 97.271729%)" offset="0.554688"/><stop stop-opacity="1" stop-color="rgb(71.313477%, 21.334839%, 97.076416%)" offset="0.558594"/><stop stop-opacity="1" stop-color="rgb(70.762634%, 22.04895%, 96.882629%)" offset="0.5625"/><stop stop-opacity="1" stop-color="rgb(70.210266%, 22.763062%, 96.688843%)" offset="0.566406"/><stop stop-opacity="1" stop-color="rgb(69.659424%, 23.478699%, 96.495056%)" offset="0.570312"/><stop stop-opacity="1" stop-color="rgb(69.107056%, 24.19281%, 96.299744%)" offset="0.574219"/><stop stop-opacity="1" stop-color="rgb(68.556213%, 24.908447%, 96.105957%)" offset="0.578125"/><stop stop-opacity="1" stop-color="rgb(68.003845%, 25.622559%, 95.910645%)" offset="0.582031"/><stop stop-opacity="1" stop-color="rgb(67.453003%, 26.33667%, 95.716858%)" offset="0.585937"/><stop stop-opacity="1" stop-color="rgb(66.900635%, 27.050781%, 95.523071%)" offset="0.589844"/><stop stop-opacity="1" stop-color="rgb(66.349792%, 27.766418%, 95.329285%)" offset="0.59375"/><stop stop-opacity="1" stop-color="rgb(65.797424%, 28.48053%, 95.133972%)" offset="0.597656"/><stop stop-opacity="1" stop-color="rgb(65.246582%, 29.196167%, 94.940186%)" offset="0.601562"/><stop stop-opacity="1" stop-color="rgb(64.694214%, 29.910278%, 94.744873%)" offset="0.605469"/><stop stop-opacity="1" stop-color="rgb(64.141846%, 30.625916%, 94.551086%)" offset="0.609375"/><stop stop-opacity="1" stop-color="rgb(63.589478%, 31.340027%, 94.3573%)" offset="0.613281"/><stop stop-opacity="1" stop-color="rgb(63.038635%, 32.054138%, 94.163513%)" offset="0.617187"/><stop stop-opacity="1" stop-color="rgb(62.486267%, 32.76825%, 93.968201%)" offset="0.621094"/><stop stop-opacity="1" stop-color="rgb(61.935425%, 33.483887%, 93.774414%)" offset="0.625"/><stop stop-opacity="1" stop-color="rgb(61.383057%, 34.197998%, 93.579102%)" offset="0.628906"/><stop stop-opacity="1" stop-color="rgb(60.832214%, 34.913635%, 93.385315%)" offset="0.632812"/><stop stop-opacity="1" stop-color="rgb(60.279846%, 35.627747%, 93.191528%)" offset="0.636719"/><stop stop-opacity="1" stop-color="rgb(59.729004%, 36.341858%, 92.997742%)" offset="0.640625"/><stop stop-opacity="1" stop-color="rgb(59.176636%, 37.055969%, 92.802429%)" offset="0.644531"/><stop stop-opacity="1" stop-color="rgb(58.625793%, 37.771606%, 92.608643%)" offset="0.648438"/><stop stop-opacity="1" stop-color="rgb(58.073425%, 38.485718%, 92.41333%)" offset="0.652344"/><stop stop-opacity="1" stop-color="rgb(57.522583%, 39.201355%, 92.219543%)" offset="0.65625"/><stop stop-opacity="1" stop-color="rgb(56.970215%, 39.915466%, 92.025757%)" offset="0.660156"/><stop stop-opacity="1" stop-color="rgb(56.419373%, 40.629578%, 91.83197%)" offset="0.664062"/><stop stop-opacity="1" stop-color="rgb(55.867004%, 41.343689%, 91.636658%)" offset="0.667969"/><stop stop-opacity="1" stop-color="rgb(55.316162%, 42.059326%, 91.442871%)" offset="0.671875"/><stop stop-opacity="1" stop-color="rgb(54.763794%, 42.773438%, 91.247559%)" offset="0.675781"/><stop stop-opacity="1" stop-color="rgb(54.212952%, 43.489075%, 91.053772%)" offset="0.679688"/><stop stop-opacity="1" stop-color="rgb(53.660583%, 44.203186%, 90.859985%)" offset="0.683594"/><stop stop-opacity="1" stop-color="rgb(53.109741%, 44.917297%, 90.666199%)" offset="0.6875"/><stop stop-opacity="1" stop-color="rgb(52.557373%, 45.631409%, 90.470886%)" offset="0.691406"/><stop stop-opacity="1" stop-color="rgb(52.006531%, 46.347046%, 90.2771%)" offset="0.695312"/><stop stop-opacity="1" stop-color="rgb(51.454163%, 47.061157%, 90.081787%)" offset="0.699219"/><stop stop-opacity="1" stop-color="rgb(50.90332%, 47.776794%, 89.888%)" offset="0.703125"/><stop stop-opacity="1" stop-color="rgb(50.350952%, 48.490906%, 89.694214%)" offset="0.707031"/><stop stop-opacity="1" stop-color="rgb(49.798584%, 49.205017%, 89.500427%)" offset="0.710938"/><stop stop-opacity="1" stop-color="rgb(49.246216%, 49.919128%, 89.305115%)" offset="0.714844"/><stop stop-opacity="1" stop-color="rgb(48.695374%, 50.634766%, 89.111328%)" offset="0.71875"/><stop stop-opacity="1" stop-color="rgb(48.143005%, 51.348877%, 88.916016%)" offset="0.722656"/><stop stop-opacity="1" stop-color="rgb(47.592163%, 52.064514%, 88.722229%)" offset="0.726563"/><stop stop-opacity="1" stop-color="rgb(47.039795%, 52.778625%, 88.526917%)" offset="0.730469"/><stop stop-opacity="1" stop-color="rgb(46.488953%, 53.494263%, 88.33313%)" offset="0.734375"/><stop stop-opacity="1" stop-color="rgb(45.936584%, 54.208374%, 88.139343%)" offset="0.738281"/><stop stop-opacity="1" stop-color="rgb(45.385742%, 54.922485%, 87.945557%)" offset="0.742188"/><stop stop-opacity="1" stop-color="rgb(44.833374%, 55.636597%, 87.750244%)" offset="0.746094"/><stop stop-opacity="1" stop-color="rgb(44.282532%, 56.352234%, 87.556458%)" offset="0.75"/><stop stop-opacity="1" stop-color="rgb(43.730164%, 57.066345%, 87.361145%)" offset="0.753906"/><stop stop-opacity="1" stop-color="rgb(43.179321%, 57.781982%, 87.167358%)" offset="0.757813"/><stop stop-opacity="1" stop-color="rgb(42.626953%, 58.496094%, 86.973572%)" offset="0.761719"/><stop stop-opacity="1" stop-color="rgb(42.076111%, 59.210205%, 86.779785%)" offset="0.765625"/><stop stop-opacity="1" stop-color="rgb(41.523743%, 59.924316%, 86.584473%)" offset="0.769531"/><stop stop-opacity="1" stop-color="rgb(40.9729%, 60.639954%, 86.390686%)" offset="0.773438"/><stop stop-opacity="1" stop-color="rgb(40.420532%, 61.354065%, 86.195374%)" offset="0.777344"/><stop stop-opacity="1" stop-color="rgb(39.86969%, 62.069702%, 86.001587%)" offset="0.78125"/><stop stop-opacity="1" stop-color="rgb(39.317322%, 62.783813%, 85.8078%)" offset="0.785156"/><stop stop-opacity="1" stop-color="rgb(38.766479%, 63.497925%, 85.614014%)" offset="0.789063"/><stop stop-opacity="1" stop-color="rgb(38.214111%, 64.212036%, 85.418701%)" offset="0.792969"/><stop stop-opacity="1" stop-color="rgb(37.663269%, 64.927673%, 85.224915%)" offset="0.796875"/><stop stop-opacity="1" stop-color="rgb(37.110901%, 65.641785%, 85.029602%)" offset="0.800781"/><stop stop-opacity="1" stop-color="rgb(36.560059%, 66.357422%, 84.835815%)" offset="0.804688"/><stop stop-opacity="1" stop-color="rgb(36.00769%, 67.071533%, 84.642029%)" offset="0.808594"/><stop stop-opacity="1" stop-color="rgb(35.455322%, 67.785645%, 84.448242%)" offset="0.8125"/><stop stop-opacity="1" stop-color="rgb(34.902954%, 68.499756%, 84.25293%)" offset="0.816406"/><stop stop-opacity="1" stop-color="rgb(34.352112%, 69.215393%, 84.059143%)" offset="0.820312"/><stop stop-opacity="1" stop-color="rgb(33.799744%, 69.929504%, 83.863831%)" offset="0.824219"/><stop stop-opacity="1" stop-color="rgb(33.248901%, 70.645142%, 83.670044%)" offset="0.828125"/><stop stop-opacity="1" stop-color="rgb(32.696533%, 71.359253%, 83.476257%)" offset="0.832031"/><stop stop-opacity="1" stop-color="rgb(32.145691%, 72.073364%, 83.282471%)" offset="0.835938"/><stop stop-opacity="1" stop-color="rgb(31.593323%, 72.787476%, 83.087158%)" offset="0.839844"/><stop stop-opacity="1" stop-color="rgb(31.04248%, 73.503113%, 82.893372%)" offset="0.84375"/><stop stop-opacity="1" stop-color="rgb(30.490112%, 74.217224%, 82.698059%)" offset="0.847656"/><stop stop-opacity="1" stop-color="rgb(29.93927%, 74.932861%, 82.504272%)" offset="0.851562"/><stop stop-opacity="1" stop-color="rgb(29.386902%, 75.646973%, 82.310486%)" offset="0.855469"/><stop stop-opacity="1" stop-color="rgb(28.83606%, 76.361084%, 82.116699%)" offset="0.859375"/><stop stop-opacity="1" stop-color="rgb(28.283691%, 77.075195%, 81.921387%)" offset="0.863281"/><stop stop-opacity="1" stop-color="rgb(27.732849%, 77.790833%, 81.7276%)" offset="0.867188"/><stop stop-opacity="1" stop-color="rgb(27.180481%, 78.504944%, 81.532288%)" offset="0.871094"/><stop stop-opacity="1" stop-color="rgb(26.629639%, 79.220581%, 81.338501%)" offset="0.875"/><stop stop-opacity="1" stop-color="rgb(26.077271%, 79.934692%, 81.144714%)" offset="0.878906"/><stop stop-opacity="1" stop-color="rgb(25.526428%, 80.65033%, 80.950928%)" offset="0.882813"/><stop stop-opacity="1" stop-color="rgb(24.97406%, 81.364441%, 80.755615%)" offset="0.886719"/><stop stop-opacity="1" stop-color="rgb(24.423218%, 82.078552%, 80.561829%)" offset="0.890625"/><stop stop-opacity="1" stop-color="rgb(23.87085%, 82.792664%, 80.366516%)" offset="0.894531"/><stop stop-opacity="1" stop-color="rgb(23.320007%, 83.508301%, 80.172729%)" offset="0.898438"/><stop stop-opacity="1" stop-color="rgb(22.767639%, 84.222412%, 79.978943%)" offset="0.902344"/><stop stop-opacity="1" stop-color="rgb(22.216797%, 84.938049%, 79.785156%)" offset="0.90625"/><stop stop-opacity="1" stop-color="rgb(21.664429%, 85.652161%, 79.589844%)" offset="0.910156"/><stop stop-opacity="1" stop-color="rgb(21.113586%, 86.366272%, 79.396057%)" offset="0.914062"/><stop stop-opacity="1" stop-color="rgb(20.561218%, 87.080383%, 79.200745%)" offset="0.917969"/><stop stop-opacity="1" stop-color="rgb(20.00885%, 87.796021%, 79.006958%)" offset="0.921875"/><stop stop-opacity="1" stop-color="rgb(19.456482%, 88.510132%, 78.811646%)" offset="0.925781"/><stop stop-opacity="1" stop-color="rgb(18.90564%, 89.225769%, 78.617859%)" offset="0.929688"/><stop stop-opacity="1" stop-color="rgb(18.353271%, 89.93988%, 78.424072%)" offset="0.933594"/><stop stop-opacity="1" stop-color="rgb(17.802429%, 90.653992%, 78.230286%)" offset="0.9375"/><stop stop-opacity="1" stop-color="rgb(17.250061%, 91.368103%, 78.034973%)" offset="0.941406"/><stop stop-opacity="1" stop-color="rgb(16.699219%, 92.08374%, 77.841187%)" offset="0.945312"/><stop stop-opacity="1" stop-color="rgb(16.146851%, 92.797852%, 77.645874%)" offset="0.949219"/><stop stop-opacity="1" stop-color="rgb(15.596008%, 93.513489%, 77.452087%)" offset="0.953125"/><stop stop-opacity="1" stop-color="rgb(15.04364%, 94.2276%, 77.258301%)" offset="0.957031"/><stop stop-opacity="1" stop-color="rgb(14.492798%, 94.941711%, 77.064514%)" offset="0.960938"/><stop stop-opacity="1" stop-color="rgb(13.94043%, 95.655823%, 76.869202%)" offset="0.964844"/><stop stop-opacity="1" stop-color="rgb(13.389587%, 96.37146%, 76.675415%)" offset="0.96875"/><stop stop-opacity="1" stop-color="rgb(12.837219%, 97.085571%, 76.480103%)" offset="0.972656"/><stop stop-opacity="1" stop-color="rgb(12.286377%, 97.801208%, 76.286316%)" offset="0.976562"/><stop stop-opacity="1" stop-color="rgb(11.734009%, 98.51532%, 76.092529%)" offset="0.980469"/><stop stop-opacity="1" stop-color="rgb(11.183167%, 99.229431%, 75.898743%)" offset="0.984375"/><stop stop-opacity="1" stop-color="rgb(10.88562%, 99.613953%, 75.793457%)" offset="0.988281"/><stop stop-opacity="1" stop-color="rgb(10.5896%, 100%, 75.689697%)" offset="0.992188"/><stop stop-opacity="1" stop-color="rgb(10.5896%, 100%, 75.689697%)" offset="1"/></linearGradient><clipPath id="50a0216458"><rect x="0" width="375" y="0" height="375"/></clipPath><clipPath id="988ea11fdf"><rect x="0" width="375" y="0" height="375"/></clipPath><clipPath id="079947331b"><rect x="0" width="375" y="0" height="375"/></clipPath><mask id="a15d40060a"><g filter="url(#ad35284ecc)"><g transform="matrix(1, 0, 0, 1, 0, 0)"><g clip-path="url(#079947331b)"><g transform="matrix(1, 0, 0, 1, 0, 0)"><g clip-path="url(#988ea11fdf)"><g fill="#000000" fill-opacity="1"><g transform="translate(4.080148, 231.383088)"><g><path d="M 18.765625 0 L 2.078125 0 L 2.078125 -54.1875 L 43.765625 -54.1875 L 43.765625 0 L 27.09375 4.171875 L 27.09375 -20.84375 L 18.765625 -20.84375 Z M 27.09375 -33.34375 L 27.09375 -41.6875 L 18.765625 -41.6875 L 18.765625 -33.34375 Z M 27.09375 -33.34375 "/></g></g></g><g fill="#000000" fill-opacity="1"><g transform="translate(49.931552, 231.383088)"><g><path d="M 43.765625 -54.1875 L 43.765625 0 L 2.078125 0 L 2.078125 -14.59375 L 27.09375 -14.59375 L 27.09375 -20.84375 L 2.078125 -20.84375 L 2.078125 -54.1875 L 18.765625 -54.1875 L 18.765625 -33.34375 L 27.09375 -33.34375 L 27.09375 -54.1875 Z M 43.765625 -54.1875 "/></g></g></g><g fill="#000000" fill-opacity="1"><g transform="translate(95.782956, 231.383088)"><g><path d="M 18.765625 0 L 2.078125 0 L 2.078125 -54.1875 L 43.765625 -54.1875 L 43.765625 0 L 27.09375 4.171875 L 27.09375 -20.84375 L 18.765625 -20.84375 Z M 27.09375 -33.34375 L 27.09375 -41.6875 L 18.765625 -41.6875 L 18.765625 -33.34375 Z M 27.09375 -33.34375 "/></g></g></g><g fill="#000000" fill-opacity="1"><g transform="translate(141.63436, 231.383088)"><g><path d="M 43.765625 -41.6875 L 27.09375 -37.515625 L 27.09375 -41.6875 L 18.765625 -41.6875 L 18.765625 -33.34375 L 43.765625 -33.34375 L 43.765625 0 L 2.078125 0 L 2.078125 -12.5 L 18.765625 -16.671875 L 18.765625 -12.5 L 27.09375 -12.5 L 27.09375 -20.84375 L 2.078125 -20.84375 L 2.078125 -54.1875 L 43.765625 -54.1875 Z M 43.765625 -41.6875 "/></g></g></g><g fill="#000000" fill-opacity="1"><g transform="translate(187.485764, 231.383088)"><g><path d="M 43.765625 -37.515625 L 27.09375 -33.34375 L 27.09375 -41.6875 L 18.765625 -41.6875 L 18.765625 -12.5 L 27.09375 -12.5 L 27.09375 -16.671875 L 43.765625 -20.84375 L 43.765625 0 L 2.078125 0 L 2.078125 -54.1875 L 43.765625 -54.1875 Z M 43.765625 -37.515625 "/></g></g></g><g fill="#000000" fill-opacity="1"><g transform="translate(233.337168, 231.383088)"><g><path d="M 27.09375 0 L 27.09375 -20.84375 L 18.765625 -20.84375 L 18.765625 0 L 2.078125 0 L 2.078125 -54.1875 L 18.765625 -54.1875 L 18.765625 -33.34375 L 27.09375 -33.34375 L 27.09375 -54.1875 L 43.765625 -54.1875 L 43.765625 0 Z M 27.09375 0 "/></g></g></g><g fill="#000000" fill-opacity="1"><g transform="translate(279.188572, 231.383088)"><g><path d="M 43.765625 -54.1875 L 43.765625 0 L 2.078125 0 L 2.078125 -14.59375 L 27.09375 -14.59375 L 27.09375 -20.84375 L 2.078125 -20.84375 L 2.078125 -54.1875 L 18.765625 -54.1875 L 18.765625 -33.34375 L 27.09375 -33.34375 L 27.09375 -54.1875 Z M 43.765625 -54.1875 "/></g></g></g><g fill="#000000" fill-opacity="1"><g transform="translate(325.039976, 231.383088)"><g><path d="M 18.765625 0 L 2.078125 0 L 2.078125 -54.1875 L 43.765625 -54.1875 L 43.765625 0 L 27.09375 4.171875 L 27.09375 -20.84375 L 18.765625 -20.84375 Z M 27.09375 -33.34375 L 27.09375 -41.6875 L 18.765625 -41.6875 L 18.765625 -33.34375 Z M 27.09375 -33.34375 "/></g></g></g></g></g></g></g></g></mask><clipPath id="4f28ff85fe"><path d="M 0 0 L 375 0 L 375 375 L 0 375 Z M 0 0 " clip-rule="nonzero"/></clipPath><clipPath id="b966df6434"><rect x="0" width="375" y="0" height="375"/></clipPath><clipPath id="f334616c2b"><rect x="0" width="375" y="0" height="375"/></clipPath><clipPath id="1cfd6459ac"><rect x="0" width="375" y="0" height="375"/></clipPath><clipPath id="8e7890b4f2"><path d="M 0 1.09375 L 375 1.09375 L 375 105.515625 L 0 105.515625 Z M 0 1.09375 " clip-rule="nonzero"/></clipPath><clipPath id="3457e89cba"><path d="M 0 0.09375 L 375 0.09375 L 375 104.515625 L 0 104.515625 Z M 0 0.09375 " clip-rule="nonzero"/></clipPath><clipPath id="5f38abf00d"><path d="M 42.59375 1.042969 L 333.074219 1.042969 L 333.074219 102.617188 L 42.59375 102.617188 Z M 42.59375 1.042969 " clip-rule="nonzero"/></clipPath><linearGradient x1="12.663" gradientTransform="matrix(0.949421, 0, 0, 0.945547, 30.56975, 39.064662)" y1="13.5" x2="318.61899" gradientUnits="userSpaceOnUse" y2="13.5" id="1dd325d3c8"><stop stop-opacity="1" stop-color="rgb(54.899597%, 32.159424%, 100%)" offset="0"/><stop stop-opacity="1" stop-color="rgb(54.899597%, 32.159424%, 100%)" offset="0.125"/><stop stop-opacity="1" stop-color="rgb(54.899597%, 32.159424%, 100%)" offset="0.132812"/><stop stop-opacity="1" stop-color="rgb(55.099487%, 31.983948%, 100%)" offset="0.136719"/><stop stop-opacity="1" stop-color="rgb(55.299377%, 31.809998%, 100%)" offset="0.140625"/><stop stop-opacity="1" stop-color="rgb(55.563354%, 31.578064%, 100%)" offset="0.144531"/><stop stop-opacity="1" stop-color="rgb(55.828857%, 31.347656%, 100%)" offset="0.148438"/><stop stop-opacity="1" stop-color="rgb(56.092834%, 31.117249%, 100%)" offset="0.152344"/><stop stop-opacity="1" stop-color="rgb(56.356812%, 30.886841%, 100%)" offset="0.15625"/><stop stop-opacity="1" stop-color="rgb(56.620789%, 30.656433%, 100%)" offset="0.160156"/><stop stop-opacity="1" stop-color="rgb(56.884766%, 30.426025%, 100%)" offset="0.164062"/><stop stop-opacity="1" stop-color="rgb(57.148743%, 30.194092%, 100%)" offset="0.167969"/><stop stop-opacity="1" stop-color="rgb(57.414246%, 29.963684%, 100%)" offset="0.171875"/><stop stop-opacity="1" stop-color="rgb(57.678223%, 29.733276%, 100%)" offset="0.175781"/><stop stop-opacity="1" stop-color="rgb(57.9422%, 29.502869%, 100%)" offset="0.179688"/><stop stop-opacity="1" stop-color="rgb(58.206177%, 29.272461%, 100%)" offset="0.183594"/><stop stop-opacity="1" stop-color="rgb(58.470154%, 29.042053%, 100%)" offset="0.1875"/><stop stop-opacity="1" stop-color="rgb(58.734131%, 28.81012%, 100%)" offset="0.191406"/><stop stop-opacity="1" stop-color="rgb(58.999634%, 28.579712%, 100%)" offset="0.195312"/><stop stop-opacity="1" stop-color="rgb(59.263611%, 28.349304%, 100%)" offset="0.199219"/><stop stop-opacity="1" stop-color="rgb(59.527588%, 28.118896%, 100%)" offset="0.203125"/><stop stop-opacity="1" stop-color="rgb(59.791565%, 27.888489%, 100%)" offset="0.207031"/><stop stop-opacity="1" stop-color="rgb(60.055542%, 27.658081%, 100%)" offset="0.210938"/><stop stop-opacity="1" stop-color="rgb(60.319519%, 27.426147%, 100%)" offset="0.214844"/><stop stop-opacity="1" stop-color="rgb(60.585022%, 27.19574%, 100%)" offset="0.21875"/><stop stop-opacity="1" stop-color="rgb(60.848999%, 26.965332%, 100%)" offset="0.222656"/><stop stop-opacity="1" stop-color="rgb(61.112976%, 26.734924%, 100%)" offset="0.226562"/><stop stop-opacity="1" stop-color="rgb(61.376953%, 26.504517%, 100%)" offset="0.230469"/><stop stop-opacity="1" stop-color="rgb(61.64093%, 26.274109%, 100%)" offset="0.234375"/><stop stop-opacity="1" stop-color="rgb(61.904907%, 26.042175%, 100%)" offset="0.238281"/><stop stop-opacity="1" stop-color="rgb(62.17041%, 25.811768%, 100%)" offset="0.242187"/><stop stop-opacity="1" stop-color="rgb(62.434387%, 25.58136%, 100%)" offset="0.246094"/><stop stop-opacity="1" stop-color="rgb(62.698364%, 25.350952%, 100%)" offset="0.25"/><stop stop-opacity="1" stop-color="rgb(62.962341%, 25.120544%, 100%)" offset="0.253906"/><stop stop-opacity="1" stop-color="rgb(63.226318%, 24.890137%, 100%)" offset="0.257812"/><stop stop-opacity="1" stop-color="rgb(63.490295%, 24.658203%, 100%)" offset="0.261719"/><stop stop-opacity="1" stop-color="rgb(63.755798%, 24.427795%, 100%)" offset="0.265625"/><stop stop-opacity="1" stop-color="rgb(64.019775%, 24.197388%, 100%)" offset="0.269531"/><stop stop-opacity="1" stop-color="rgb(64.283752%, 23.96698%, 100%)" offset="0.273437"/><stop stop-opacity="1" stop-color="rgb(64.547729%, 23.736572%, 100%)" offset="0.277344"/><stop stop-opacity="1" stop-color="rgb(64.811707%, 23.506165%, 100%)" offset="0.28125"/><stop stop-opacity="1" stop-color="rgb(65.075684%, 23.274231%, 100%)" offset="0.285156"/><stop stop-opacity="1" stop-color="rgb(65.341187%, 23.043823%, 100%)" offset="0.289062"/><stop stop-opacity="1" stop-color="rgb(65.605164%, 22.813416%, 100%)" offset="0.292969"/><stop stop-opacity="1" stop-color="rgb(65.869141%, 22.583008%, 100%)" offset="0.296875"/><stop stop-opacity="1" stop-color="rgb(66.133118%, 22.3526%, 100%)" offset="0.300781"/><stop stop-opacity="1" stop-color="rgb(66.397095%, 22.122192%, 100%)" offset="0.304688"/><stop stop-opacity="1" stop-color="rgb(66.661072%, 21.890259%, 100%)" offset="0.308594"/><stop stop-opacity="1" stop-color="rgb(66.926575%, 21.659851%, 100%)" offset="0.3125"/><stop stop-opacity="1" stop-color="rgb(67.190552%, 21.429443%, 100%)" offset="0.316406"/><stop stop-opacity="1" stop-color="rgb(67.454529%, 21.199036%, 100%)" offset="0.320312"/><stop stop-opacity="1" stop-color="rgb(67.718506%, 20.968628%, 100%)" offset="0.324219"/><stop stop-opacity="1" stop-color="rgb(67.982483%, 20.73822%, 100%)" offset="0.328125"/><stop stop-opacity="1" stop-color="rgb(68.24646%, 20.506287%, 100%)" offset="0.332031"/><stop stop-opacity="1" stop-color="rgb(68.511963%, 20.275879%, 100%)" offset="0.335937"/><stop stop-opacity="1" stop-color="rgb(68.77594%, 20.045471%, 100%)" offset="0.339844"/><stop stop-opacity="1" stop-color="rgb(69.039917%, 19.815063%, 100%)" offset="0.34375"/><stop stop-opacity="1" stop-color="rgb(69.303894%, 19.584656%, 100%)" offset="0.347656"/><stop stop-opacity="1" stop-color="rgb(69.567871%, 19.354248%, 100%)" offset="0.351562"/><stop stop-opacity="1" stop-color="rgb(69.831848%, 19.12384%, 100%)" offset="0.355469"/><stop stop-opacity="1" stop-color="rgb(70.097351%, 18.893433%, 100%)" offset="0.359375"/><stop stop-opacity="1" stop-color="rgb(70.361328%, 18.661499%, 100%)" offset="0.363281"/><stop stop-opacity="1" stop-color="rgb(70.625305%, 18.431091%, 100%)" offset="0.367187"/><stop stop-opacity="1" stop-color="rgb(70.889282%, 18.200684%, 100%)" offset="0.371094"/><stop stop-opacity="1" stop-color="rgb(71.153259%, 17.970276%, 100%)" offset="0.375"/><stop stop-opacity="1" stop-color="rgb(71.417236%, 17.739868%, 100%)" offset="0.378906"/><stop stop-opacity="1" stop-color="rgb(71.682739%, 17.50946%, 100%)" offset="0.382812"/><stop stop-opacity="1" stop-color="rgb(71.946716%, 17.277527%, 100%)" offset="0.386719"/><stop stop-opacity="1" stop-color="rgb(72.210693%, 17.047119%, 100%)" offset="0.390625"/><stop stop-opacity="1" stop-color="rgb(72.47467%, 16.816711%, 100%)" offset="0.394531"/><stop stop-opacity="1" stop-color="rgb(72.738647%, 16.586304%, 100%)" offset="0.398437"/><stop stop-opacity="1" stop-color="rgb(73.002625%, 16.355896%, 100%)" offset="0.402344"/><stop stop-opacity="1" stop-color="rgb(73.268127%, 16.125488%, 100%)" offset="0.40625"/><stop stop-opacity="1" stop-color="rgb(73.532104%, 15.893555%, 100%)" offset="0.410156"/><stop stop-opacity="1" stop-color="rgb(73.796082%, 15.663147%, 100%)" offset="0.414062"/><stop stop-opacity="1" stop-color="rgb(74.060059%, 15.432739%, 100%)" offset="0.417969"/><stop stop-opacity="1" stop-color="rgb(74.324036%, 15.202332%, 100%)" offset="0.421875"/><stop stop-opacity="1" stop-color="rgb(74.588013%, 14.971924%, 100%)" offset="0.425781"/><stop stop-opacity="1" stop-color="rgb(74.853516%, 14.741516%, 100%)" offset="0.429687"/><stop stop-opacity="1" stop-color="rgb(75.117493%, 14.509583%, 100%)" offset="0.433594"/><stop stop-opacity="1" stop-color="rgb(75.38147%, 14.279175%, 100%)" offset="0.4375"/><stop stop-opacity="1" stop-color="rgb(75.645447%, 14.048767%, 100%)" offset="0.441406"/><stop stop-opacity="1" stop-color="rgb(75.909424%, 13.818359%, 100%)" offset="0.445312"/><stop stop-opacity="1" stop-color="rgb(76.173401%, 13.587952%, 100%)" offset="0.449219"/><stop stop-opacity="1" stop-color="rgb(76.438904%, 13.357544%, 100%)" offset="0.453125"/><stop stop-opacity="1" stop-color="rgb(76.702881%, 13.12561%, 100%)" offset="0.457031"/><stop stop-opacity="1" stop-color="rgb(76.966858%, 12.895203%, 100%)" offset="0.460937"/><stop stop-opacity="1" stop-color="rgb(77.230835%, 12.664795%, 100%)" offset="0.464844"/><stop stop-opacity="1" stop-color="rgb(77.494812%, 12.434387%, 100%)" offset="0.46875"/><stop stop-opacity="1" stop-color="rgb(77.758789%, 12.203979%, 100%)" offset="0.472656"/><stop stop-opacity="1" stop-color="rgb(78.024292%, 11.973572%, 100%)" offset="0.476562"/><stop stop-opacity="1" stop-color="rgb(78.288269%, 11.741638%, 100%)" offset="0.480469"/><stop stop-opacity="1" stop-color="rgb(78.552246%, 11.51123%, 100%)" offset="0.484375"/><stop stop-opacity="1" stop-color="rgb(78.816223%, 11.280823%, 100%)" offset="0.488281"/><stop stop-opacity="1" stop-color="rgb(79.0802%, 11.050415%, 100%)" offset="0.492187"/><stop stop-opacity="1" stop-color="rgb(79.344177%, 10.820007%, 99.998474%)" offset="0.496094"/><stop stop-opacity="1" stop-color="rgb(79.60968%, 10.5896%, 99.998474%)" offset="0.5"/><stop stop-opacity="1" stop-color="rgb(78.871155%, 11.5448%, 99.739075%)" offset="0.503906"/><stop stop-opacity="1" stop-color="rgb(78.132629%, 12.501526%, 99.479675%)" offset="0.507812"/><stop stop-opacity="1" stop-color="rgb(77.394104%, 13.456726%, 99.21875%)" offset="0.511719"/><stop stop-opacity="1" stop-color="rgb(76.657104%, 14.413452%, 98.959351%)" offset="0.515625"/><stop stop-opacity="1" stop-color="rgb(75.918579%, 15.370178%, 98.698425%)" offset="0.519531"/><stop stop-opacity="1" stop-color="rgb(75.180054%, 16.326904%, 98.439026%)" offset="0.523438"/><stop stop-opacity="1" stop-color="rgb(74.441528%, 17.282104%, 98.179626%)" offset="0.527344"/><stop stop-opacity="1" stop-color="rgb(73.704529%, 18.238831%, 97.920227%)" offset="0.53125"/><stop stop-opacity="1" stop-color="rgb(72.966003%, 19.194031%, 97.659302%)" offset="0.535156"/><stop stop-opacity="1" stop-color="rgb(72.229004%, 20.150757%, 97.399902%)" offset="0.539062"/><stop stop-opacity="1" stop-color="rgb(71.490479%, 21.105957%, 97.138977%)" offset="0.542969"/><stop stop-opacity="1" stop-color="rgb(70.751953%, 22.062683%, 96.879578%)" offset="0.546875"/><stop stop-opacity="1" stop-color="rgb(70.013428%, 23.017883%, 96.618652%)" offset="0.550781"/><stop stop-opacity="1" stop-color="rgb(69.276428%, 23.974609%, 96.359253%)" offset="0.554688"/><stop stop-opacity="1" stop-color="rgb(68.537903%, 24.92981%, 96.099854%)" offset="0.558594"/><stop stop-opacity="1" stop-color="rgb(67.799377%, 25.886536%, 95.840454%)" offset="0.5625"/><stop stop-opacity="1" stop-color="rgb(67.060852%, 26.841736%, 95.579529%)" offset="0.566406"/><stop stop-opacity="1" stop-color="rgb(66.323853%, 27.798462%, 95.320129%)" offset="0.570312"/><stop stop-opacity="1" stop-color="rgb(65.585327%, 28.755188%, 95.059204%)" offset="0.574219"/><stop stop-opacity="1" stop-color="rgb(64.848328%, 29.711914%, 94.799805%)" offset="0.578125"/><stop stop-opacity="1" stop-color="rgb(64.109802%, 30.667114%, 94.538879%)" offset="0.582031"/><stop stop-opacity="1" stop-color="rgb(63.371277%, 31.62384%, 94.27948%)" offset="0.585937"/><stop stop-opacity="1" stop-color="rgb(62.632751%, 32.579041%, 94.020081%)" offset="0.589844"/><stop stop-opacity="1" stop-color="rgb(61.895752%, 33.535767%, 93.760681%)" offset="0.59375"/><stop stop-opacity="1" stop-color="rgb(61.157227%, 34.490967%, 93.499756%)" offset="0.597656"/><stop stop-opacity="1" stop-color="rgb(60.420227%, 35.447693%, 93.240356%)" offset="0.601562"/><stop stop-opacity="1" stop-color="rgb(59.681702%, 36.402893%, 92.979431%)" offset="0.605469"/><stop stop-opacity="1" stop-color="rgb(58.943176%, 37.359619%, 92.720032%)" offset="0.609375"/><stop stop-opacity="1" stop-color="rgb(58.204651%, 38.314819%, 92.460632%)" offset="0.613281"/><stop stop-opacity="1" stop-color="rgb(57.467651%, 39.271545%, 92.201233%)" offset="0.617187"/><stop stop-opacity="1" stop-color="rgb(56.729126%, 40.228271%, 91.940308%)" offset="0.621094"/><stop stop-opacity="1" stop-color="rgb(55.990601%, 41.184998%, 91.680908%)" offset="0.625"/><stop stop-opacity="1" stop-color="rgb(55.252075%, 42.140198%, 91.419983%)" offset="0.628906"/><stop stop-opacity="1" stop-color="rgb(54.515076%, 43.096924%, 91.160583%)" offset="0.632812"/><stop stop-opacity="1" stop-color="rgb(53.77655%, 44.052124%, 90.899658%)" offset="0.636719"/><stop stop-opacity="1" stop-color="rgb(53.039551%, 45.00885%, 90.640259%)" offset="0.640625"/><stop stop-opacity="1" stop-color="rgb(52.301025%, 45.96405%, 90.380859%)" offset="0.644531"/><stop stop-opacity="1" stop-color="rgb(51.5625%, 46.920776%, 90.12146%)" offset="0.648437"/><stop stop-opacity="1" stop-color="rgb(50.823975%, 47.875977%, 89.860535%)" offset="0.652344"/><stop stop-opacity="1" stop-color="rgb(50.086975%, 48.832703%, 89.601135%)" offset="0.65625"/><stop stop-opacity="1" stop-color="rgb(49.34845%, 49.787903%, 89.34021%)" offset="0.660156"/><stop stop-opacity="1" stop-color="rgb(48.61145%, 50.744629%, 89.080811%)" offset="0.664062"/><stop stop-opacity="1" stop-color="rgb(47.872925%, 51.701355%, 88.819885%)" offset="0.667969"/><stop stop-opacity="1" stop-color="rgb(47.134399%, 52.658081%, 88.560486%)" offset="0.671875"/><stop stop-opacity="1" stop-color="rgb(46.395874%, 53.613281%, 88.301086%)" offset="0.675781"/><stop stop-opacity="1" stop-color="rgb(45.658875%, 54.570007%, 88.041687%)" offset="0.679687"/><stop stop-opacity="1" stop-color="rgb(44.920349%, 55.525208%, 87.780762%)" offset="0.683594"/><stop stop-opacity="1" stop-color="rgb(44.181824%, 56.481934%, 87.521362%)" offset="0.6875"/><stop stop-opacity="1" stop-color="rgb(43.443298%, 57.437134%, 87.260437%)" offset="0.691406"/><stop stop-opacity="1" stop-color="rgb(42.706299%, 58.39386%, 87.001038%)" offset="0.695312"/><stop stop-opacity="1" stop-color="rgb(41.967773%, 59.34906%, 86.741638%)" offset="0.699219"/><stop stop-opacity="1" stop-color="rgb(41.230774%, 60.305786%, 86.482239%)" offset="0.703125"/><stop stop-opacity="1" stop-color="rgb(40.492249%, 61.260986%, 86.221313%)" offset="0.707031"/><stop stop-opacity="1" stop-color="rgb(39.753723%, 62.217712%, 85.961914%)" offset="0.710938"/><stop stop-opacity="1" stop-color="rgb(39.015198%, 63.174438%, 85.700989%)" offset="0.714844"/><stop stop-opacity="1" stop-color="rgb(38.278198%, 64.131165%, 85.441589%)" offset="0.71875"/><stop stop-opacity="1" stop-color="rgb(37.539673%, 65.086365%, 85.180664%)" offset="0.722656"/><stop stop-opacity="1" stop-color="rgb(36.802673%, 66.043091%, 84.921265%)" offset="0.726562"/><stop stop-opacity="1" stop-color="rgb(36.064148%, 66.998291%, 84.661865%)" offset="0.730469"/><stop stop-opacity="1" stop-color="rgb(35.325623%, 67.955017%, 84.402466%)" offset="0.734375"/><stop stop-opacity="1" stop-color="rgb(34.587097%, 68.910217%, 84.141541%)" offset="0.738281"/><stop stop-opacity="1" stop-color="rgb(33.850098%, 69.866943%, 83.882141%)" offset="0.742188"/><stop stop-opacity="1" stop-color="rgb(33.111572%, 70.822144%, 83.621216%)" offset="0.746094"/><stop stop-opacity="1" stop-color="rgb(32.373047%, 71.77887%, 83.361816%)" offset="0.75"/><stop stop-opacity="1" stop-color="rgb(31.634521%, 72.73407%, 83.100891%)" offset="0.753906"/><stop stop-opacity="1" stop-color="rgb(30.897522%, 73.690796%, 82.841492%)" offset="0.757812"/><stop stop-opacity="1" stop-color="rgb(30.158997%, 74.647522%, 82.582092%)" offset="0.761719"/><stop stop-opacity="1" stop-color="rgb(29.421997%, 75.604248%, 82.322693%)" offset="0.765625"/><stop stop-opacity="1" stop-color="rgb(28.683472%, 76.559448%, 82.061768%)" offset="0.769531"/><stop stop-opacity="1" stop-color="rgb(27.944946%, 77.516174%, 81.802368%)" offset="0.773438"/><stop stop-opacity="1" stop-color="rgb(27.206421%, 78.471375%, 81.541443%)" offset="0.777344"/><stop stop-opacity="1" stop-color="rgb(26.469421%, 79.428101%, 81.282043%)" offset="0.78125"/><stop stop-opacity="1" stop-color="rgb(25.730896%, 80.383301%, 81.022644%)" offset="0.785156"/><stop stop-opacity="1" stop-color="rgb(24.993896%, 81.340027%, 80.763245%)" offset="0.789062"/><stop stop-opacity="1" stop-color="rgb(24.255371%, 82.295227%, 80.502319%)" offset="0.792969"/><stop stop-opacity="1" stop-color="rgb(23.516846%, 83.251953%, 80.24292%)" offset="0.796875"/><stop stop-opacity="1" stop-color="rgb(22.77832%, 84.207153%, 79.981995%)" offset="0.800781"/><stop stop-opacity="1" stop-color="rgb(22.041321%, 85.163879%, 79.722595%)" offset="0.804688"/><stop stop-opacity="1" stop-color="rgb(21.302795%, 86.120605%, 79.46167%)" offset="0.808594"/><stop stop-opacity="1" stop-color="rgb(20.56427%, 87.077332%, 79.202271%)" offset="0.8125"/><stop stop-opacity="1" stop-color="rgb(19.825745%, 88.032532%, 78.942871%)" offset="0.816406"/><stop stop-opacity="1" stop-color="rgb(19.088745%, 88.989258%, 78.683472%)" offset="0.820313"/><stop stop-opacity="1" stop-color="rgb(18.35022%, 89.944458%, 78.422546%)" offset="0.824219"/><stop stop-opacity="1" stop-color="rgb(17.61322%, 90.901184%, 78.163147%)" offset="0.828125"/><stop stop-opacity="1" stop-color="rgb(16.874695%, 91.856384%, 77.902222%)" offset="0.832031"/><stop stop-opacity="1" stop-color="rgb(16.136169%, 92.81311%, 77.642822%)" offset="0.835938"/><stop stop-opacity="1" stop-color="rgb(15.397644%, 93.768311%, 77.381897%)" offset="0.839844"/><stop stop-opacity="1" stop-color="rgb(14.660645%, 94.725037%, 77.122498%)" offset="0.84375"/><stop stop-opacity="1" stop-color="rgb(13.922119%, 95.680237%, 76.863098%)" offset="0.847656"/><stop stop-opacity="1" stop-color="rgb(13.18512%, 96.636963%, 76.603699%)" offset="0.851563"/><stop stop-opacity="1" stop-color="rgb(12.446594%, 97.592163%, 76.342773%)" offset="0.855469"/><stop stop-opacity="1" stop-color="rgb(11.708069%, 98.548889%, 76.083374%)" offset="0.859375"/><stop stop-opacity="1" stop-color="rgb(11.148071%, 99.273682%, 75.886536%)" offset="0.863281"/><stop stop-opacity="1" stop-color="rgb(10.5896%, 100%, 75.689697%)" offset="0.867188"/><stop stop-opacity="1" stop-color="rgb(10.5896%, 100%, 75.689697%)" offset="0.875"/><stop stop-opacity="1" stop-color="rgb(10.5896%, 100%, 75.689697%)" offset="1"/></linearGradient><clipPath id="d35c5077d8"><rect x="0" width="375" y="0" height="105"/></clipPath><clipPath id="a9e0d8e5ba"><path d="M 0 0.09375 L 375 0.09375 L 375 104.515625 L 0 104.515625 Z M 0 0.09375 " clip-rule="nonzero"/></clipPath><clipPath id="2c1ac5096e"><rect x="0" width="375" y="0" height="105"/></clipPath><clipPath id="2d355024a1"><rect x="0" width="375" y="0" height="105"/></clipPath><mask id="daa976425c"><g filter="url(#ad35284ecc)"><g transform="matrix(1, 0, 0, 1, 0, -0.000000000000028422)"><g clip-path="url(#2d355024a1)"><g clip-path="url(#a9e0d8e5ba)"><g transform="matrix(1, 0, 0, 1, 0, -0.000000000000028422)"><g clip-path="url(#2c1ac5096e)"><g fill="#000000" fill-opacity="1"><g transform="translate(81.393161, 58.949263)"><g><path d="M 1.109375 -10.96875 C 1.085938 -11 1.066406 -11.023438 1.046875 -11.046875 C 1.035156 -11.078125 1.019531 -11.101562 1 -11.125 C 0.96875 -11.195312 0.945312 -11.269531 0.9375 -11.34375 C 0.9375 -11.425781 0.9375 -11.5 0.9375 -11.5625 C 0.96875 -11.863281 0.984375 -12.160156 0.984375 -12.453125 C 0.992188 -12.742188 1.003906 -13.035156 1.015625 -13.328125 C 1.015625 -13.453125 1.039062 -13.546875 1.09375 -13.609375 C 1.144531 -13.660156 1.203125 -13.691406 1.265625 -13.703125 C 1.335938 -13.710938 1.40625 -13.71875 1.46875 -13.71875 C 4.664062 -13.71875 7.863281 -13.710938 11.0625 -13.703125 C 14.257812 -13.691406 17.460938 -13.679688 20.671875 -13.671875 C 20.710938 -13.671875 20.753906 -13.664062 20.796875 -13.65625 C 20.847656 -13.65625 20.894531 -13.632812 20.9375 -13.59375 C 20.96875 -13.550781 20.984375 -13.472656 20.984375 -13.359375 L 20.984375 -11.328125 C 20.984375 -11.242188 20.976562 -11.160156 20.96875 -11.078125 C 20.96875 -11.003906 20.9375 -10.941406 20.875 -10.890625 C 20.820312 -10.835938 20.757812 -10.804688 20.6875 -10.796875 C 20.625 -10.796875 20.5625 -10.796875 20.5 -10.796875 C 19.320312 -10.828125 18.148438 -10.847656 16.984375 -10.859375 C 15.816406 -10.867188 14.648438 -10.878906 13.484375 -10.890625 C 13.304688 -10.890625 13.132812 -10.875 12.96875 -10.84375 C 12.800781 -10.820312 12.664062 -10.742188 12.5625 -10.609375 C 12.5 -10.515625 12.457031 -10.40625 12.4375 -10.28125 C 12.425781 -10.164062 12.421875 -10.050781 12.421875 -9.9375 C 12.429688 -8.363281 12.445312 -6.78125 12.46875 -5.1875 C 12.488281 -3.601562 12.503906 -2.019531 12.515625 -0.4375 C 12.515625 -0.382812 12.507812 -0.332031 12.5 -0.28125 C 12.5 -0.226562 12.476562 -0.179688 12.4375 -0.140625 C 12.382812 -0.0859375 12.300781 -0.0625 12.1875 -0.0625 C 11.789062 -0.0078125 11.394531 0.0195312 11 0.03125 C 10.613281 0.0390625 10.226562 0.0351562 9.84375 0.015625 C 9.65625 0.015625 9.46875 -0.0078125 9.28125 -0.0625 C 9.09375 -0.113281 8.945312 -0.21875 8.84375 -0.375 C 8.800781 -0.46875 8.773438 -0.566406 8.765625 -0.671875 C 8.765625 -0.773438 8.765625 -0.867188 8.765625 -0.953125 C 8.785156 -2.472656 8.8125 -3.984375 8.84375 -5.484375 C 8.882812 -6.984375 8.921875 -8.484375 8.953125 -9.984375 C 8.953125 -10.140625 8.929688 -10.300781 8.890625 -10.46875 C 8.859375 -10.632812 8.769531 -10.757812 8.625 -10.84375 C 8.570312 -10.863281 8.515625 -10.875 8.453125 -10.875 C 8.390625 -10.875 8.320312 -10.875 8.25 -10.875 C 7.195312 -10.863281 6.140625 -10.847656 5.078125 -10.828125 C 4.023438 -10.816406 2.960938 -10.800781 1.890625 -10.78125 C 1.765625 -10.78125 1.628906 -10.789062 1.484375 -10.8125 C 1.335938 -10.832031 1.210938 -10.882812 1.109375 -10.96875 Z M 1.109375 -10.96875 "/></g></g></g><g fill="#000000" fill-opacity="1"><g transform="translate(103.308078, 58.949263)"><g><path d="M 1.953125 0 L 2 0.046875 C 2.101562 0.128906 2.222656 0.15625 2.359375 0.125 C 2.503906 0.09375 2.644531 0.0664062 2.78125 0.046875 C 2.925781 0.00390625 3.066406 -0.0195312 3.203125 -0.03125 C 3.347656 -0.0390625 3.488281 -0.0351562 3.625 -0.015625 C 6.34375 0.0351562 9.0625 0.0390625 11.78125 0 C 14.5 -0.03125 17.21875 -0.046875 19.9375 -0.046875 C 20.195312 -0.046875 20.363281 -0.0390625 20.4375 -0.03125 C 20.519531 -0.0195312 20.6875 -0.015625 20.9375 -0.015625 C 21.070312 -0.015625 21.203125 0.0078125 21.328125 0.0625 C 21.460938 0.113281 21.59375 0.132812 21.71875 0.125 C 21.84375 0.125 21.953125 0.0351562 22.046875 -0.140625 C 22.140625 -0.285156 22.175781 -0.457031 22.15625 -0.65625 C 22.132812 -0.851562 22.101562 -1.050781 22.0625 -1.25 C 22.019531 -1.457031 22 -1.640625 22 -1.796875 C 22 -2.046875 22.003906 -2.25 22.015625 -2.40625 C 22.035156 -2.5625 21.992188 -2.679688 21.890625 -2.765625 C 21.796875 -2.847656 21.582031 -2.890625 21.25 -2.890625 C 18.726562 -2.878906 16.207031 -2.867188 13.6875 -2.859375 C 11.164062 -2.847656 8.640625 -2.832031 6.109375 -2.8125 C 5.773438 -2.8125 5.585938 -2.921875 5.546875 -3.140625 C 5.515625 -3.359375 5.484375 -3.585938 5.453125 -3.828125 C 5.429688 -4.054688 5.40625 -4.3125 5.375 -4.59375 C 5.351562 -4.875 5.398438 -5.117188 5.515625 -5.328125 C 5.597656 -5.453125 5.71875 -5.515625 5.875 -5.515625 C 6.039062 -5.523438 6.195312 -5.515625 6.34375 -5.484375 C 6.5625 -5.410156 6.773438 -5.367188 6.984375 -5.359375 C 7.191406 -5.359375 7.414062 -5.359375 7.65625 -5.359375 C 9.945312 -5.359375 12.25 -5.359375 14.5625 -5.359375 C 16.875 -5.359375 19.1875 -5.363281 21.5 -5.375 C 21.550781 -5.375 21.601562 -5.378906 21.65625 -5.390625 C 21.707031 -5.398438 21.753906 -5.421875 21.796875 -5.453125 C 21.847656 -5.503906 21.875 -5.59375 21.875 -5.71875 L 22.046875 -7.328125 C 22.085938 -7.648438 22.003906 -7.867188 21.796875 -7.984375 C 21.585938 -8.109375 21.316406 -8.175781 20.984375 -8.1875 C 20.660156 -8.195312 20.335938 -8.179688 20.015625 -8.140625 C 19.703125 -8.109375 19.453125 -8.09375 19.265625 -8.09375 C 18.628906 -8.082031 17.988281 -8.078125 17.34375 -8.078125 C 16.695312 -8.078125 16.046875 -8.070312 15.390625 -8.0625 C 14.097656 -8.0625 12.804688 -8.054688 11.515625 -8.046875 C 10.222656 -8.046875 8.9375 -8.046875 7.65625 -8.046875 C 7.40625 -8.046875 7.097656 -8.019531 6.734375 -7.96875 C 6.378906 -7.914062 6.09375 -7.914062 5.875 -7.96875 C 5.726562 -7.988281 5.617188 -8.070312 5.546875 -8.21875 C 5.472656 -8.375 5.441406 -8.523438 5.453125 -8.671875 C 5.453125 -8.898438 5.445312 -9.140625 5.4375 -9.390625 C 5.425781 -9.648438 5.429688 -9.890625 5.453125 -10.109375 C 5.484375 -10.335938 5.5625 -10.519531 5.6875 -10.65625 C 5.820312 -10.800781 6.039062 -10.875 6.34375 -10.875 C 7.71875 -10.863281 9.097656 -10.859375 10.484375 -10.859375 C 11.867188 -10.859375 13.25 -10.851562 14.625 -10.84375 C 15.320312 -10.820312 16.019531 -10.8125 16.71875 -10.8125 C 17.425781 -10.8125 18.125 -10.804688 18.8125 -10.796875 C 19.113281 -10.796875 19.40625 -10.796875 19.6875 -10.796875 C 19.976562 -10.804688 20.269531 -10.800781 20.5625 -10.78125 C 20.769531 -10.769531 20.992188 -10.753906 21.234375 -10.734375 C 21.484375 -10.710938 21.695312 -10.773438 21.875 -10.921875 C 21.976562 -10.992188 22.035156 -11.09375 22.046875 -11.21875 C 22.054688 -11.34375 22.0625 -11.460938 22.0625 -11.578125 L 22 -12.96875 C 22 -13.0625 21.992188 -13.148438 21.984375 -13.234375 C 21.972656 -13.316406 21.941406 -13.390625 21.890625 -13.453125 C 21.804688 -13.554688 21.703125 -13.617188 21.578125 -13.640625 C 21.460938 -13.660156 21.335938 -13.671875 21.203125 -13.671875 L 2.484375 -13.734375 C 2.234375 -13.734375 2.0625 -13.628906 1.96875 -13.421875 C 1.882812 -13.210938 1.84375 -12.953125 1.84375 -12.640625 C 1.84375 -12.335938 1.859375 -12.039062 1.890625 -11.75 C 1.929688 -11.457031 1.953125 -11.21875 1.953125 -11.03125 C 1.960938 -10.195312 1.96875 -9.363281 1.96875 -8.53125 C 1.96875 -7.707031 1.96875 -6.878906 1.96875 -6.046875 C 1.96875 -5.460938 1.96875 -4.878906 1.96875 -4.296875 C 1.96875 -3.710938 1.960938 -3.132812 1.953125 -2.5625 C 1.953125 -2.1875 1.921875 -1.8125 1.859375 -1.4375 C 1.804688 -1.0625 1.804688 -0.6875 1.859375 -0.3125 C 1.867188 -0.257812 1.878906 -0.207031 1.890625 -0.15625 C 1.910156 -0.101562 1.929688 -0.0507812 1.953125 0 Z M 1.953125 0 "/></g></g></g><g fill="#000000" fill-opacity="1"><g transform="translate(127.17793, 58.949263)"><g><path d="M 1.03125 0 C 1.03125 0.03125 1.039062 0.0507812 1.0625 0.0625 C 1.082031 0.113281 1.144531 0.140625 1.25 0.140625 C 1.363281 0.148438 1.445312 0.148438 1.5 0.140625 C 1.90625 0.078125 2.320312 0.03125 2.75 0 C 3.175781 -0.0390625 3.585938 -0.0351562 3.984375 0.015625 C 4.398438 0.0546875 4.8125 0.0859375 5.21875 0.109375 C 5.625 0.140625 6.03125 0.0859375 6.4375 -0.046875 C 6.632812 -0.109375 6.820312 -0.191406 7 -0.296875 C 7.1875 -0.410156 7.363281 -0.523438 7.53125 -0.640625 C 8.5 -1.296875 9.460938 -1.945312 10.421875 -2.59375 C 11.390625 -3.238281 12.347656 -3.878906 13.296875 -4.515625 C 13.484375 -4.617188 13.664062 -4.71875 13.84375 -4.8125 C 14.03125 -4.90625 14.222656 -4.9375 14.421875 -4.90625 C 14.546875 -4.894531 14.664062 -4.851562 14.78125 -4.78125 C 14.894531 -4.71875 15.003906 -4.65625 15.109375 -4.59375 L 18.734375 -2.15625 C 19.066406 -1.945312 19.390625 -1.738281 19.703125 -1.53125 C 20.015625 -1.320312 20.328125 -1.113281 20.640625 -0.90625 C 20.890625 -0.726562 21.132812 -0.554688 21.375 -0.390625 C 21.625 -0.222656 21.894531 -0.09375 22.1875 0 C 22.613281 0.113281 23.046875 0.140625 23.484375 0.078125 C 23.929688 0.0234375 24.378906 -0.00390625 24.828125 -0.015625 C 25.046875 -0.015625 25.269531 -0.0078125 25.5 0 C 25.726562 0.0078125 25.957031 0.0234375 26.1875 0.046875 C 26.257812 0.046875 26.375 0.0507812 26.53125 0.0625 C 26.695312 0.0820312 26.859375 0.0859375 27.015625 0.078125 C 27.171875 0.0664062 27.273438 0.03125 27.328125 -0.03125 C 27.378906 -0.09375 27.328125 -0.203125 27.171875 -0.359375 C 27.054688 -0.472656 26.925781 -0.566406 26.78125 -0.640625 C 26.632812 -0.722656 26.488281 -0.8125 26.34375 -0.90625 C 26.132812 -1.019531 25.925781 -1.128906 25.71875 -1.234375 C 25.507812 -1.335938 25.3125 -1.453125 25.125 -1.578125 L 22.484375 -3.28125 C 21.273438 -3.988281 20.316406 -4.5625 19.609375 -5 C 18.898438 -5.445312 18.363281 -5.796875 18 -6.046875 C 17.644531 -6.296875 17.40625 -6.476562 17.28125 -6.59375 C 17.164062 -6.707031 17.109375 -6.796875 17.109375 -6.859375 C 17.109375 -6.953125 17.175781 -7.023438 17.3125 -7.078125 C 18 -7.535156 18.695312 -7.984375 19.40625 -8.421875 C 20.113281 -8.867188 20.8125 -9.316406 21.5 -9.765625 C 22.488281 -10.390625 23.472656 -11.015625 24.453125 -11.640625 C 25.441406 -12.265625 26.425781 -12.890625 27.40625 -13.515625 C 27.507812 -13.566406 27.5625 -13.625 27.5625 -13.6875 C 27.5625 -13.757812 27.519531 -13.800781 27.4375 -13.8125 C 27.351562 -13.832031 27.28125 -13.835938 27.21875 -13.828125 C 25.820312 -13.597656 24.398438 -13.570312 22.953125 -13.75 C 22.804688 -13.78125 22.660156 -13.800781 22.515625 -13.8125 C 22.367188 -13.820312 22.226562 -13.800781 22.09375 -13.75 C 22 -13.707031 21.90625 -13.65625 21.8125 -13.59375 C 21.726562 -13.53125 21.648438 -13.46875 21.578125 -13.40625 C 20.867188 -12.832031 20.125 -12.316406 19.34375 -11.859375 C 18.5625 -11.398438 17.78125 -10.9375 17 -10.46875 C 16.21875 -10.007812 15.484375 -9.488281 14.796875 -8.90625 C 14.710938 -8.832031 14.628906 -8.769531 14.546875 -8.71875 C 14.460938 -8.664062 14.367188 -8.648438 14.265625 -8.671875 C 14.222656 -8.679688 14.1875 -8.695312 14.15625 -8.71875 C 14.125 -8.738281 14.085938 -8.753906 14.046875 -8.765625 L 7.46875 -13.046875 C 7.3125 -13.148438 7.148438 -13.25 6.984375 -13.34375 C 6.816406 -13.445312 6.640625 -13.523438 6.453125 -13.578125 C 6.285156 -13.628906 6.113281 -13.660156 5.9375 -13.671875 C 5.757812 -13.679688 5.582031 -13.6875 5.40625 -13.6875 C 4.800781 -13.707031 4.1875 -13.742188 3.5625 -13.796875 C 2.945312 -13.847656 2.332031 -13.835938 1.71875 -13.765625 C 1.65625 -13.765625 1.570312 -13.753906 1.46875 -13.734375 C 1.375 -13.722656 1.3125 -13.695312 1.28125 -13.65625 C 1.25 -13.613281 1.289062 -13.546875 1.40625 -13.453125 L 6.859375 -9.921875 C 7.316406 -9.628906 7.773438 -9.332031 8.234375 -9.03125 C 8.703125 -8.738281 9.164062 -8.441406 9.625 -8.140625 L 10.96875 -7.25 C 11.175781 -7.113281 11.210938 -6.929688 11.078125 -6.703125 C 10.953125 -6.484375 10.71875 -6.234375 10.375 -5.953125 C 10.03125 -5.671875 9.625 -5.382812 9.15625 -5.09375 C 8.6875 -4.800781 8.207031 -4.515625 7.71875 -4.234375 C 7.226562 -3.953125 6.785156 -3.695312 6.390625 -3.46875 C 5.847656 -3.125 5.304688 -2.773438 4.765625 -2.421875 C 4.222656 -2.066406 3.6875 -1.722656 3.15625 -1.390625 L 1.5 -0.390625 C 1.425781 -0.335938 1.320312 -0.285156 1.1875 -0.234375 C 1.0625 -0.179688 1.007812 -0.101562 1.03125 0 Z M 1.03125 0 "/></g></g></g><g fill="#000000" fill-opacity="1"><g transform="translate(155.583251, 58.949263)"><g><path d="M 0.5625 -0.015625 C 0.488281 -0.109375 0.492188 -0.234375 0.578125 -0.390625 C 0.660156 -0.554688 0.78125 -0.726562 0.9375 -0.90625 C 1.09375 -1.09375 1.242188 -1.257812 1.390625 -1.40625 C 1.546875 -1.5625 1.648438 -1.671875 1.703125 -1.734375 C 2.953125 -3.617188 4.207031 -5.503906 5.46875 -7.390625 C 6.726562 -9.273438 7.984375 -11.160156 9.234375 -13.046875 C 9.398438 -13.296875 9.644531 -13.472656 9.96875 -13.578125 C 10.300781 -13.691406 10.660156 -13.757812 11.046875 -13.78125 C 11.441406 -13.8125 11.828125 -13.828125 12.203125 -13.828125 C 12.585938 -13.828125 12.914062 -13.84375 13.1875 -13.875 C 13.34375 -13.882812 13.5 -13.890625 13.65625 -13.890625 C 13.820312 -13.898438 13.976562 -13.878906 14.125 -13.828125 C 14.425781 -13.734375 14.679688 -13.5625 14.890625 -13.3125 C 15.097656 -13.0625 15.28125 -12.796875 15.4375 -12.515625 C 16.675781 -10.441406 17.96875 -8.40625 19.3125 -6.40625 C 20.664062 -4.40625 22.0625 -2.429688 23.5 -0.484375 C 23.5625 -0.410156 23.609375 -0.320312 23.640625 -0.21875 C 23.671875 -0.113281 23.648438 -0.0234375 23.578125 0.046875 C 23.535156 0.0664062 23.460938 0.078125 23.359375 0.078125 C 23.066406 0.078125 22.769531 0.078125 22.46875 0.078125 C 22.175781 0.0859375 21.878906 0.101562 21.578125 0.125 C 21.285156 0.125 20.988281 0.101562 20.6875 0.0625 C 20.382812 0.03125 20.117188 -0.0820312 19.890625 -0.28125 C 19.703125 -0.445312 19.546875 -0.671875 19.421875 -0.953125 C 19.304688 -1.242188 19.179688 -1.515625 19.046875 -1.765625 C 18.910156 -2.023438 18.695312 -2.1875 18.40625 -2.25 C 18 -2.34375 17.546875 -2.351562 17.046875 -2.28125 C 16.554688 -2.21875 16.101562 -2.179688 15.6875 -2.171875 C 15.164062 -2.160156 14.632812 -2.148438 14.09375 -2.140625 C 13.5625 -2.128906 13.03125 -2.125 12.5 -2.125 C 11.425781 -2.125 10.359375 -2.128906 9.296875 -2.140625 C 8.234375 -2.160156 7.171875 -2.171875 6.109375 -2.171875 C 5.765625 -2.171875 5.503906 -2.078125 5.328125 -1.890625 C 5.148438 -1.703125 5.003906 -1.472656 4.890625 -1.203125 C 4.773438 -0.929688 4.640625 -0.675781 4.484375 -0.4375 C 4.335938 -0.207031 4.117188 -0.046875 3.828125 0.046875 C 3.359375 0.203125 2.863281 0.25 2.34375 0.1875 C 1.832031 0.125 1.332031 0.0859375 0.84375 0.078125 C 0.789062 0.0664062 0.738281 0.0546875 0.6875 0.046875 C 0.644531 0.046875 0.601562 0.0234375 0.5625 -0.015625 Z M 7.671875 -5.0625 C 7.722656 -4.957031 7.832031 -4.878906 8 -4.828125 C 8.101562 -4.785156 8.207031 -4.769531 8.3125 -4.78125 C 8.414062 -4.789062 8.519531 -4.800781 8.625 -4.8125 C 9.507812 -4.925781 10.410156 -5.007812 11.328125 -5.0625 C 12.242188 -5.113281 13.144531 -5.101562 14.03125 -5.03125 C 14.144531 -5.03125 14.332031 -5.003906 14.59375 -4.953125 C 14.851562 -4.898438 15.132812 -4.851562 15.4375 -4.8125 C 15.75 -4.78125 16.015625 -4.785156 16.234375 -4.828125 C 16.453125 -4.867188 16.582031 -4.972656 16.625 -5.140625 C 16.632812 -5.210938 16.617188 -5.285156 16.578125 -5.359375 C 16.546875 -5.441406 16.503906 -5.507812 16.453125 -5.5625 C 16.023438 -6.113281 15.601562 -6.675781 15.1875 -7.25 C 14.78125 -7.832031 14.378906 -8.414062 13.984375 -9 C 13.910156 -9.125 13.789062 -9.347656 13.625 -9.671875 C 13.457031 -9.992188 13.273438 -10.328125 13.078125 -10.671875 C 12.878906 -11.023438 12.675781 -11.316406 12.46875 -11.546875 C 12.269531 -11.773438 12.09375 -11.859375 11.9375 -11.796875 C 11.84375 -11.765625 11.734375 -11.632812 11.609375 -11.40625 C 11.484375 -11.1875 11.363281 -10.953125 11.25 -10.703125 C 11.144531 -10.460938 11.0625 -10.300781 11 -10.21875 C 10.820312 -9.957031 10.648438 -9.691406 10.484375 -9.421875 C 10.328125 -9.148438 10.160156 -8.882812 9.984375 -8.625 C 9.640625 -8.113281 9.285156 -7.613281 8.921875 -7.125 C 8.566406 -6.632812 8.203125 -6.15625 7.828125 -5.6875 C 7.773438 -5.625 7.726562 -5.5625 7.6875 -5.5 C 7.644531 -5.4375 7.617188 -5.363281 7.609375 -5.28125 C 7.609375 -5.21875 7.628906 -5.144531 7.671875 -5.0625 Z M 7.671875 -5.0625 "/></g></g></g><g fill="#000000" fill-opacity="1"><g transform="translate(179.726798, 58.949263)"><g><path d="M 21.890625 -13.671875 C 21.910156 -13.554688 21.878906 -13.40625 21.796875 -13.21875 C 21.710938 -13.03125 21.617188 -12.847656 21.515625 -12.671875 C 21.421875 -12.503906 21.359375 -12.382812 21.328125 -12.3125 C 21.097656 -11.914062 20.859375 -11.523438 20.609375 -11.140625 C 20.359375 -10.765625 20.113281 -10.382812 19.875 -10 L 17.546875 -6.078125 C 17.179688 -5.472656 16.816406 -4.863281 16.453125 -4.25 C 16.085938 -3.632812 15.722656 -3.019531 15.359375 -2.40625 C 15.203125 -2.144531 15.03125 -1.820312 14.84375 -1.4375 C 14.664062 -1.050781 14.453125 -0.710938 14.203125 -0.421875 C 13.953125 -0.140625 13.644531 0.00390625 13.28125 0.015625 L 9.875 0.078125 C 9.519531 0.0859375 9.269531 0.00390625 9.125 -0.171875 C 8.988281 -0.359375 8.847656 -0.59375 8.703125 -0.875 C 8.597656 -1.101562 8.460938 -1.3125 8.296875 -1.5 C 8.140625 -1.695312 7.992188 -1.898438 7.859375 -2.109375 C 7.703125 -2.367188 7.539062 -2.628906 7.375 -2.890625 C 7.21875 -3.148438 7.0625 -3.410156 6.90625 -3.671875 C 6.59375 -4.179688 6.285156 -4.695312 5.984375 -5.21875 C 5.679688 -5.738281 5.382812 -6.257812 5.09375 -6.78125 L 2.953125 -10.375 C 2.785156 -10.664062 2.609375 -10.96875 2.421875 -11.28125 C 2.242188 -11.59375 2.0625 -11.898438 1.875 -12.203125 C 1.832031 -12.273438 1.757812 -12.378906 1.65625 -12.515625 C 1.550781 -12.660156 1.453125 -12.8125 1.359375 -12.96875 C 1.273438 -13.132812 1.222656 -13.28125 1.203125 -13.40625 C 1.179688 -13.539062 1.226562 -13.628906 1.34375 -13.671875 C 1.675781 -13.765625 2.050781 -13.796875 2.46875 -13.765625 C 2.882812 -13.742188 3.253906 -13.734375 3.578125 -13.734375 C 3.742188 -13.734375 3.910156 -13.722656 4.078125 -13.703125 C 4.242188 -13.691406 4.390625 -13.648438 4.515625 -13.578125 C 4.660156 -13.484375 4.785156 -13.367188 4.890625 -13.234375 C 4.992188 -13.097656 5.09375 -12.957031 5.1875 -12.8125 C 5.726562 -11.875 6.273438 -10.929688 6.828125 -9.984375 C 7.378906 -9.035156 7.929688 -8.09375 8.484375 -7.15625 L 10.15625 -4.34375 C 10.375 -3.988281 10.566406 -3.628906 10.734375 -3.265625 C 10.910156 -2.910156 11.128906 -2.578125 11.390625 -2.265625 C 11.453125 -2.191406 11.546875 -2.21875 11.671875 -2.34375 C 11.804688 -2.46875 11.953125 -2.648438 12.109375 -2.890625 C 12.265625 -3.128906 12.414062 -3.378906 12.5625 -3.640625 C 12.71875 -3.910156 12.851562 -4.148438 12.96875 -4.359375 C 13.082031 -4.566406 13.160156 -4.703125 13.203125 -4.765625 C 13.460938 -5.222656 13.71875 -5.671875 13.96875 -6.109375 C 14.21875 -6.554688 14.472656 -7.003906 14.734375 -7.453125 C 15.296875 -8.378906 15.851562 -9.304688 16.40625 -10.234375 C 16.957031 -11.171875 17.515625 -12.109375 18.078125 -13.046875 C 18.171875 -13.191406 18.269531 -13.332031 18.375 -13.46875 C 18.488281 -13.613281 18.628906 -13.710938 18.796875 -13.765625 C 18.941406 -13.796875 19.078125 -13.796875 19.203125 -13.765625 C 19.335938 -13.742188 19.472656 -13.71875 19.609375 -13.6875 C 20.210938 -13.550781 20.828125 -13.585938 21.453125 -13.796875 C 21.703125 -13.859375 21.847656 -13.816406 21.890625 -13.671875 Z M 21.890625 -13.671875 "/></g></g></g><g fill="#000000" fill-opacity="1"><g transform="translate(202.736483, 58.949263)"><g><path d="M 1.921875 -13.734375 C 1.828125 -13.628906 1.789062 -13.441406 1.8125 -13.171875 C 1.832031 -12.910156 1.867188 -12.640625 1.921875 -12.359375 C 1.984375 -12.078125 2.015625 -11.859375 2.015625 -11.703125 C 2.023438 -11.304688 2.015625 -10.910156 1.984375 -10.515625 C 1.960938 -10.117188 1.945312 -9.71875 1.9375 -9.3125 C 1.9375 -8.675781 1.9375 -8.039062 1.9375 -7.40625 C 1.945312 -6.78125 1.957031 -6.148438 1.96875 -5.515625 C 2 -4.703125 2.015625 -3.890625 2.015625 -3.078125 C 2.023438 -2.265625 1.976562 -1.453125 1.875 -0.640625 C 1.863281 -0.554688 1.851562 -0.46875 1.84375 -0.375 C 1.84375 -0.28125 1.859375 -0.1875 1.890625 -0.09375 C 1.941406 0.03125 2.03125 0.0976562 2.15625 0.109375 C 2.28125 0.128906 2.414062 0.125 2.5625 0.09375 C 2.707031 0.0625 2.832031 0.0351562 2.9375 0.015625 C 3.15625 -0.00390625 3.378906 -0.00390625 3.609375 0.015625 C 3.835938 0.0351562 4.054688 0.0546875 4.265625 0.078125 C 4.378906 0.0859375 4.523438 0.101562 4.703125 0.125 C 4.890625 0.15625 5.070312 0.160156 5.25 0.140625 C 5.425781 0.128906 5.554688 0.0546875 5.640625 -0.078125 C 5.703125 -0.191406 5.71875 -0.332031 5.6875 -0.5 C 5.65625 -0.664062 5.628906 -0.804688 5.609375 -0.921875 C 5.585938 -1.171875 5.578125 -1.425781 5.578125 -1.6875 C 5.585938 -1.957031 5.59375 -2.21875 5.59375 -2.46875 L 5.53125 -5.5625 C 5.519531 -6.582031 5.507812 -7.609375 5.5 -8.640625 C 5.5 -9.671875 5.523438 -10.703125 5.578125 -11.734375 C 5.585938 -11.890625 5.613281 -12.085938 5.65625 -12.328125 C 5.695312 -12.578125 5.722656 -12.816406 5.734375 -13.046875 C 5.753906 -13.285156 5.726562 -13.46875 5.65625 -13.59375 C 5.570312 -13.738281 5.46875 -13.8125 5.34375 -13.8125 C 5.226562 -13.8125 5.097656 -13.789062 4.953125 -13.75 C 4.816406 -13.707031 4.6875 -13.679688 4.5625 -13.671875 C 4.425781 -13.660156 4.289062 -13.660156 4.15625 -13.671875 C 4.03125 -13.679688 3.90625 -13.6875 3.78125 -13.6875 C 3.625 -13.6875 3.429688 -13.71875 3.203125 -13.78125 C 2.972656 -13.84375 2.75 -13.890625 2.53125 -13.921875 C 2.3125 -13.953125 2.132812 -13.914062 2 -13.8125 C 1.976562 -13.800781 1.960938 -13.785156 1.953125 -13.765625 C 1.941406 -13.753906 1.929688 -13.742188 1.921875 -13.734375 Z M 1.921875 -13.734375 "/></g></g></g><g fill="#000000" fill-opacity="1"><g transform="translate(210.28256, 58.949263)"><g><path d="M 1.296875 -0.984375 C 1.296875 -0.984375 1.28125 -0.992188 1.25 -1.015625 C 1.238281 -1.046875 1.226562 -1.078125 1.21875 -1.109375 C 1.21875 -1.148438 1.207031 -1.191406 1.1875 -1.234375 C 1.113281 -2.265625 1.097656 -3.304688 1.140625 -4.359375 C 1.867188 -3.785156 2.660156 -3.316406 3.515625 -2.953125 C 4.378906 -2.597656 5.269531 -2.332031 6.1875 -2.15625 C 7.09375 -1.976562 8.007812 -1.867188 8.9375 -1.828125 C 9.863281 -1.785156 10.785156 -1.769531 11.703125 -1.78125 C 12.390625 -1.800781 13.082031 -1.832031 13.78125 -1.875 C 14.476562 -1.925781 15.164062 -2.03125 15.84375 -2.1875 C 16.195312 -2.269531 16.539062 -2.398438 16.875 -2.578125 C 17.21875 -2.765625 17.4375 -3.035156 17.53125 -3.390625 C 17.59375 -3.671875 17.546875 -3.941406 17.390625 -4.203125 C 17.234375 -4.472656 17.023438 -4.679688 16.765625 -4.828125 C 16.515625 -4.972656 16.242188 -5.070312 15.953125 -5.125 C 15.671875 -5.175781 15.390625 -5.21875 15.109375 -5.25 C 13.679688 -5.351562 12.257812 -5.40625 10.84375 -5.40625 C 9.425781 -5.40625 8.015625 -5.445312 6.609375 -5.53125 C 6.085938 -5.570312 5.5625 -5.628906 5.03125 -5.703125 C 4.507812 -5.773438 4 -5.898438 3.5 -6.078125 C 3.019531 -6.265625 2.5625 -6.515625 2.125 -6.828125 C 1.6875 -7.140625 1.335938 -7.523438 1.078125 -7.984375 C 0.710938 -8.609375 0.566406 -9.296875 0.640625 -10.046875 C 0.722656 -10.804688 1 -11.453125 1.46875 -11.984375 C 1.84375 -12.410156 2.28125 -12.742188 2.78125 -12.984375 C 3.289062 -13.222656 3.8125 -13.414062 4.34375 -13.5625 C 5.570312 -13.894531 6.820312 -14.097656 8.09375 -14.171875 C 9.375 -14.253906 10.644531 -14.285156 11.90625 -14.265625 C 13.269531 -14.242188 14.628906 -14.15625 15.984375 -14 C 17.335938 -13.84375 18.628906 -13.476562 19.859375 -12.90625 C 19.929688 -12.875 20.003906 -12.832031 20.078125 -12.78125 C 20.160156 -12.738281 20.222656 -12.675781 20.265625 -12.59375 C 20.296875 -12.53125 20.3125 -12.460938 20.3125 -12.390625 C 20.320312 -12.316406 20.328125 -12.242188 20.328125 -12.171875 C 20.316406 -11.679688 20.304688 -11.195312 20.296875 -10.71875 C 20.285156 -10.25 20.28125 -9.773438 20.28125 -9.296875 C 19.894531 -9.679688 19.457031 -10.007812 18.96875 -10.28125 C 18.488281 -10.550781 17.988281 -10.773438 17.46875 -10.953125 C 17.207031 -11.046875 16.9375 -11.128906 16.65625 -11.203125 C 16.382812 -11.285156 16.109375 -11.351562 15.828125 -11.40625 C 15.660156 -11.457031 15.492188 -11.507812 15.328125 -11.5625 C 15.160156 -11.613281 14.988281 -11.648438 14.8125 -11.671875 C 14.632812 -11.703125 14.460938 -11.707031 14.296875 -11.6875 C 14.140625 -11.675781 13.972656 -11.679688 13.796875 -11.703125 C 12.960938 -11.773438 12.117188 -11.8125 11.265625 -11.8125 C 10.421875 -11.820312 9.570312 -11.789062 8.71875 -11.71875 C 7.875 -11.65625 7.039062 -11.53125 6.21875 -11.34375 C 6 -11.289062 5.773438 -11.226562 5.546875 -11.15625 C 5.316406 -11.082031 5.113281 -10.976562 4.9375 -10.84375 C 4.75 -10.707031 4.59375 -10.53125 4.46875 -10.3125 C 4.351562 -10.101562 4.3125 -9.882812 4.34375 -9.65625 C 4.394531 -9.269531 4.601562 -8.976562 4.96875 -8.78125 C 5.34375 -8.582031 5.722656 -8.445312 6.109375 -8.375 C 7.296875 -8.15625 8.492188 -8.03125 9.703125 -8 C 10.910156 -7.976562 12.117188 -7.960938 13.328125 -7.953125 C 14.546875 -7.941406 15.75 -7.84375 16.9375 -7.65625 C 17.394531 -7.582031 17.84375 -7.476562 18.28125 -7.34375 C 18.726562 -7.21875 19.15625 -7.039062 19.5625 -6.8125 C 19.957031 -6.5625 20.300781 -6.253906 20.59375 -5.890625 C 20.894531 -5.523438 21.085938 -5.113281 21.171875 -4.65625 C 21.222656 -4.363281 21.226562 -4.078125 21.1875 -3.796875 C 21.15625 -3.523438 21.109375 -3.25 21.046875 -2.96875 C 20.992188 -2.726562 20.921875 -2.484375 20.828125 -2.234375 C 20.742188 -1.992188 20.625 -1.769531 20.46875 -1.5625 C 20.238281 -1.25 19.953125 -1 19.609375 -0.8125 C 19.265625 -0.625 18.910156 -0.457031 18.546875 -0.3125 C 17.109375 0.207031 15.617188 0.503906 14.078125 0.578125 C 12.546875 0.660156 11.015625 0.675781 9.484375 0.625 C 8.128906 0.570312 6.765625 0.457031 5.390625 0.28125 C 4.023438 0.101562 2.722656 -0.269531 1.484375 -0.84375 C 1.378906 -0.894531 1.316406 -0.941406 1.296875 -0.984375 Z M 1.296875 -0.984375 "/></g></g></g><g fill="#000000" fill-opacity="1"><g transform="translate(232.217017, 58.949263)"><g><path d="M 1.921875 -13.734375 C 1.828125 -13.628906 1.789062 -13.441406 1.8125 -13.171875 C 1.832031 -12.910156 1.867188 -12.640625 1.921875 -12.359375 C 1.984375 -12.078125 2.015625 -11.859375 2.015625 -11.703125 C 2.023438 -11.304688 2.015625 -10.910156 1.984375 -10.515625 C 1.960938 -10.117188 1.945312 -9.71875 1.9375 -9.3125 C 1.9375 -8.675781 1.9375 -8.039062 1.9375 -7.40625 C 1.945312 -6.78125 1.957031 -6.148438 1.96875 -5.515625 C 2 -4.703125 2.015625 -3.890625 2.015625 -3.078125 C 2.023438 -2.265625 1.976562 -1.453125 1.875 -0.640625 C 1.863281 -0.554688 1.851562 -0.46875 1.84375 -0.375 C 1.84375 -0.28125 1.859375 -0.1875 1.890625 -0.09375 C 1.941406 0.03125 2.03125 0.0976562 2.15625 0.109375 C 2.28125 0.128906 2.414062 0.125 2.5625 0.09375 C 2.707031 0.0625 2.832031 0.0351562 2.9375 0.015625 C 3.15625 -0.00390625 3.378906 -0.00390625 3.609375 0.015625 C 3.835938 0.0351562 4.054688 0.0546875 4.265625 0.078125 C 4.378906 0.0859375 4.523438 0.101562 4.703125 0.125 C 4.890625 0.15625 5.070312 0.160156 5.25 0.140625 C 5.425781 0.128906 5.554688 0.0546875 5.640625 -0.078125 C 5.703125 -0.191406 5.71875 -0.332031 5.6875 -0.5 C 5.65625 -0.664062 5.628906 -0.804688 5.609375 -0.921875 C 5.585938 -1.171875 5.578125 -1.425781 5.578125 -1.6875 C 5.585938 -1.957031 5.59375 -2.21875 5.59375 -2.46875 L 5.53125 -5.5625 C 5.519531 -6.582031 5.507812 -7.609375 5.5 -8.640625 C 5.5 -9.671875 5.523438 -10.703125 5.578125 -11.734375 C 5.585938 -11.890625 5.613281 -12.085938 5.65625 -12.328125 C 5.695312 -12.578125 5.722656 -12.816406 5.734375 -13.046875 C 5.753906 -13.285156 5.726562 -13.46875 5.65625 -13.59375 C 5.570312 -13.738281 5.46875 -13.8125 5.34375 -13.8125 C 5.226562 -13.8125 5.097656 -13.789062 4.953125 -13.75 C 4.816406 -13.707031 4.6875 -13.679688 4.5625 -13.671875 C 4.425781 -13.660156 4.289062 -13.660156 4.15625 -13.671875 C 4.03125 -13.679688 3.90625 -13.6875 3.78125 -13.6875 C 3.625 -13.6875 3.429688 -13.71875 3.203125 -13.78125 C 2.972656 -13.84375 2.75 -13.890625 2.53125 -13.921875 C 2.3125 -13.953125 2.132812 -13.914062 2 -13.8125 C 1.976562 -13.800781 1.960938 -13.785156 1.953125 -13.765625 C 1.941406 -13.753906 1.929688 -13.742188 1.921875 -13.734375 Z M 1.921875 -13.734375 "/></g></g></g><g fill="#000000" fill-opacity="1"><g transform="translate(239.763094, 58.949263)"><g><path d="M 0.640625 -6.828125 C 0.691406 -6.066406 0.910156 -5.335938 1.296875 -4.640625 C 1.679688 -3.941406 2.171875 -3.300781 2.765625 -2.71875 C 3.367188 -2.132812 4.023438 -1.625 4.734375 -1.1875 C 5.453125 -0.75 6.171875 -0.410156 6.890625 -0.171875 C 7.992188 0.191406 9.125 0.425781 10.28125 0.53125 C 11.445312 0.644531 12.609375 0.679688 13.765625 0.640625 C 15.179688 0.585938 16.578125 0.425781 17.953125 0.15625 C 19.328125 -0.113281 20.640625 -0.550781 21.890625 -1.15625 C 22.492188 -1.457031 23.070312 -1.804688 23.625 -2.203125 C 24.1875 -2.597656 24.671875 -3.054688 25.078125 -3.578125 C 25.597656 -4.242188 25.9375 -4.953125 26.09375 -5.703125 C 26.25 -6.460938 26.226562 -7.21875 26.03125 -7.96875 C 25.84375 -8.726562 25.472656 -9.429688 24.921875 -10.078125 C 24.097656 -11.078125 23.085938 -11.863281 21.890625 -12.4375 C 20.691406 -13.007812 19.453125 -13.441406 18.171875 -13.734375 C 16.679688 -14.066406 15.15625 -14.242188 13.59375 -14.265625 C 12.039062 -14.285156 10.507812 -14.144531 9 -13.84375 C 8.070312 -13.664062 7.132812 -13.414062 6.1875 -13.09375 C 5.238281 -12.78125 4.351562 -12.359375 3.53125 -11.828125 C 2.71875 -11.296875 2.035156 -10.628906 1.484375 -9.828125 C 1.160156 -9.328125 0.929688 -8.828125 0.796875 -8.328125 C 0.671875 -7.828125 0.617188 -7.328125 0.640625 -6.828125 Z M 4.296875 -6.8125 C 4.285156 -7.1875 4.34375 -7.5625 4.46875 -7.9375 C 4.59375 -8.320312 4.8125 -8.695312 5.125 -9.0625 C 5.46875 -9.476562 5.875 -9.816406 6.34375 -10.078125 C 6.8125 -10.347656 7.300781 -10.578125 7.8125 -10.765625 C 9.007812 -11.203125 10.242188 -11.5 11.515625 -11.65625 C 12.796875 -11.8125 14.078125 -11.8125 15.359375 -11.65625 C 16.640625 -11.507812 17.867188 -11.195312 19.046875 -10.71875 C 19.472656 -10.550781 19.878906 -10.351562 20.265625 -10.125 C 20.660156 -9.894531 21.019531 -9.625 21.34375 -9.3125 C 21.90625 -8.75 22.238281 -8.179688 22.34375 -7.609375 C 22.457031 -7.046875 22.398438 -6.488281 22.171875 -5.9375 C 21.941406 -5.394531 21.601562 -4.890625 21.15625 -4.421875 C 20.707031 -3.953125 20.203125 -3.539062 19.640625 -3.1875 C 19.085938 -2.832031 18.539062 -2.554688 18 -2.359375 C 16.914062 -1.984375 15.773438 -1.765625 14.578125 -1.703125 C 13.390625 -1.640625 12.207031 -1.707031 11.03125 -1.90625 C 9.851562 -2.101562 8.738281 -2.414062 7.6875 -2.84375 C 7.113281 -3.070312 6.578125 -3.382812 6.078125 -3.78125 C 5.578125 -4.175781 5.160156 -4.632812 4.828125 -5.15625 C 4.503906 -5.6875 4.328125 -6.238281 4.296875 -6.8125 Z M 4.296875 -6.8125 "/></g></g></g><g fill="#000000" fill-opacity="1"><g transform="translate(267.073646, 58.949263)"><g><path d="M 1.5625 -0.046875 C 1.695312 0.0976562 1.90625 0.144531 2.1875 0.09375 C 2.601562 -0.0078125 3.03125 -0.0390625 3.46875 0 C 3.914062 0.03125 4.359375 0.0507812 4.796875 0.0625 C 5.210938 0.0703125 5.367188 -0.117188 5.265625 -0.515625 C 5.148438 -0.960938 5.085938 -1.4375 5.078125 -1.9375 C 5.066406 -2.445312 5.082031 -2.957031 5.125 -3.46875 C 5.164062 -3.988281 5.179688 -4.476562 5.171875 -4.9375 C 5.171875 -5.675781 5.160156 -6.421875 5.140625 -7.171875 C 5.128906 -7.921875 5.101562 -8.664062 5.0625 -9.40625 C 5.050781 -9.695312 5.070312 -9.863281 5.125 -9.90625 C 5.1875 -9.957031 5.265625 -9.9375 5.359375 -9.84375 C 5.460938 -9.75 5.5625 -9.640625 5.65625 -9.515625 C 5.757812 -9.398438 5.847656 -9.316406 5.921875 -9.265625 C 7.566406 -8.160156 9.210938 -7.0625 10.859375 -5.96875 C 12.515625 -4.882812 14.15625 -3.78125 15.78125 -2.65625 C 16.238281 -2.351562 16.6875 -2.050781 17.125 -1.75 C 17.5625 -1.445312 18.003906 -1.144531 18.453125 -0.84375 C 18.785156 -0.625 19.125 -0.40625 19.46875 -0.1875 C 19.820312 0.0195312 20.210938 0.101562 20.640625 0.0625 C 21.117188 0.0195312 21.597656 0 22.078125 0 C 22.566406 -0.0078125 23.050781 -0.00390625 23.53125 0.015625 C 23.6875 0.015625 23.890625 0.0390625 24.140625 0.09375 C 24.390625 0.144531 24.625 0.15625 24.84375 0.125 C 25.0625 0.09375 25.195312 -0.0234375 25.25 -0.234375 C 25.28125 -0.347656 25.265625 -0.46875 25.203125 -0.59375 C 25.148438 -0.726562 25.125 -0.859375 25.125 -0.984375 C 25.125 -1.222656 25.125 -1.378906 25.125 -1.453125 C 25.132812 -1.535156 25.140625 -1.703125 25.140625 -1.953125 C 25.140625 -2.929688 25.128906 -3.910156 25.109375 -4.890625 C 25.097656 -5.867188 25.085938 -6.847656 25.078125 -7.828125 C 25.078125 -8.648438 25.050781 -9.5 25 -10.375 C 24.957031 -11.257812 25.015625 -12.101562 25.171875 -12.90625 C 25.242188 -13.269531 25.21875 -13.523438 25.09375 -13.671875 C 24.96875 -13.816406 24.710938 -13.847656 24.328125 -13.765625 C 23.984375 -13.703125 23.632812 -13.671875 23.28125 -13.671875 C 22.925781 -13.671875 22.582031 -13.695312 22.25 -13.75 C 21.875 -13.8125 21.640625 -13.800781 21.546875 -13.71875 C 21.453125 -13.644531 21.414062 -13.515625 21.4375 -13.328125 C 21.46875 -13.148438 21.484375 -12.929688 21.484375 -12.671875 C 21.484375 -11.210938 21.488281 -9.75 21.5 -8.28125 C 21.507812 -6.8125 21.488281 -5.347656 21.4375 -3.890625 C 21.425781 -3.773438 21.421875 -3.65625 21.421875 -3.53125 C 21.429688 -3.414062 21.457031 -3.304688 21.5 -3.203125 C 21.507812 -3.148438 21.523438 -3.097656 21.546875 -3.046875 C 21.578125 -2.992188 21.597656 -2.9375 21.609375 -2.875 C 21.628906 -2.820312 21.640625 -2.765625 21.640625 -2.703125 C 21.640625 -2.640625 21.617188 -2.582031 21.578125 -2.53125 C 21.515625 -2.414062 21.429688 -2.375 21.328125 -2.40625 C 21.234375 -2.445312 21.144531 -2.507812 21.0625 -2.59375 C 20.988281 -2.675781 20.929688 -2.742188 20.890625 -2.796875 C 20.796875 -2.898438 20.691406 -2.988281 20.578125 -3.0625 C 20.472656 -3.144531 20.367188 -3.226562 20.265625 -3.3125 C 18.140625 -4.769531 16.015625 -6.226562 13.890625 -7.6875 C 11.773438 -9.144531 9.660156 -10.613281 7.546875 -12.09375 C 7.296875 -12.257812 7.023438 -12.460938 6.734375 -12.703125 C 6.453125 -12.941406 6.15625 -13.160156 5.84375 -13.359375 C 5.53125 -13.566406 5.21875 -13.691406 4.90625 -13.734375 C 4.8125 -13.742188 4.707031 -13.742188 4.59375 -13.734375 C 4.488281 -13.722656 4.382812 -13.707031 4.28125 -13.6875 C 4.03125 -13.675781 3.78125 -13.671875 3.53125 -13.671875 C 3.289062 -13.679688 3.039062 -13.703125 2.78125 -13.734375 C 2.613281 -13.753906 2.429688 -13.773438 2.234375 -13.796875 C 2.035156 -13.828125 1.859375 -13.789062 1.703125 -13.6875 C 1.554688 -13.582031 1.476562 -13.429688 1.46875 -13.234375 C 1.457031 -13.035156 1.453125 -12.859375 1.453125 -12.703125 C 1.460938 -10.890625 1.46875 -9.070312 1.46875 -7.25 C 1.46875 -5.4375 1.46875 -3.625 1.46875 -1.8125 C 1.46875 -1.65625 1.453125 -1.457031 1.421875 -1.21875 C 1.398438 -0.988281 1.390625 -0.765625 1.390625 -0.546875 C 1.398438 -0.335938 1.457031 -0.171875 1.5625 -0.046875 Z M 1.5625 -0.046875 "/></g></g></g></g></g></g></g></g></g></mask><clipPath id="dcb088f992"><path d="M 42.59375 1.042969 L 333.074219 1.042969 L 333.074219 102.617188 L 42.59375 102.617188 Z M 42.59375 1.042969 " clip-rule="nonzero"/></clipPath><clipPath id="45b5f5552a"><rect x="0" width="375" y="0" height="105"/></clipPath><clipPath id="43989eb871"><rect x="0" width="375" y="0" height="105"/></clipPath><clipPath id="b54e927c02"><rect x="0" width="375" y="0" height="107"/></clipPath><clipPath id="e925d2b4f6"><path d="M 1.273438 1.265625 L 336.074219 1.265625 L 336.074219 266.589844 L 1.273438 266.589844 Z M 1.273438 1.265625 " clip-rule="nonzero"/></clipPath><clipPath id="52cef6a3f4"><path d="M 0.273438 0.265625 L 335.074219 0.265625 L 335.074219 265.589844 L 0.273438 265.589844 Z M 0.273438 0.265625 " clip-rule="nonzero"/></clipPath><clipPath id="bc38cea34f"><path d="M 24.441406 0.265625 L 310.40625 0.265625 L 310.40625 265.589844 L 24.441406 265.589844 Z M 24.441406 0.265625 " clip-rule="nonzero"/></clipPath><linearGradient x1="-146.682999" gradientTransform="matrix(0.503757, 0, 0, 0.503453, 98.333166, 98.69617)" y1="68" x2="420.978991" gradientUnits="userSpaceOnUse" y2="68" id="1acce7884e"><stop stop-opacity="1" stop-color="rgb(54.899597%, 32.159424%, 100%)" offset="0"/><stop stop-opacity="1" stop-color="rgb(54.899597%, 32.159424%, 100%)" offset="0.25"/><stop stop-opacity="1" stop-color="rgb(54.899597%, 32.159424%, 100%)" offset="0.3125"/><stop stop-opacity="1" stop-color="rgb(54.899597%, 32.159424%, 100%)" offset="0.34375"/><stop stop-opacity="1" stop-color="rgb(55.467224%, 31.663513%, 100%)" offset="0.347656"/><stop stop-opacity="1" stop-color="rgb(56.034851%, 31.167603%, 100%)" offset="0.351563"/><stop stop-opacity="1" stop-color="rgb(56.654358%, 30.625916%, 100%)" offset="0.355469"/><stop stop-opacity="1" stop-color="rgb(57.275391%, 30.085754%, 100%)" offset="0.359375"/><stop stop-opacity="1" stop-color="rgb(57.894897%, 29.544067%, 100%)" offset="0.363281"/><stop stop-opacity="1" stop-color="rgb(58.51593%, 29.00238%, 100%)" offset="0.367188"/><stop stop-opacity="1" stop-color="rgb(59.135437%, 28.460693%, 100%)" offset="0.371094"/><stop stop-opacity="1" stop-color="rgb(59.75647%, 27.919006%, 100%)" offset="0.375"/><stop stop-opacity="1" stop-color="rgb(60.375977%, 27.377319%, 100%)" offset="0.378906"/><stop stop-opacity="1" stop-color="rgb(60.997009%, 26.835632%, 100%)" offset="0.382812"/><stop stop-opacity="1" stop-color="rgb(61.618042%, 26.293945%, 100%)" offset="0.386719"/><stop stop-opacity="1" stop-color="rgb(62.239075%, 25.752258%, 100%)" offset="0.390625"/><stop stop-opacity="1" stop-color="rgb(62.858582%, 25.210571%, 100%)" offset="0.394531"/><stop stop-opacity="1" stop-color="rgb(63.479614%, 24.67041%, 100%)" offset="0.398438"/><stop stop-opacity="1" stop-color="rgb(64.099121%, 24.128723%, 100%)" offset="0.402344"/><stop stop-opacity="1" stop-color="rgb(64.720154%, 23.587036%, 100%)" offset="0.40625"/><stop stop-opacity="1" stop-color="rgb(65.339661%, 23.045349%, 100%)" offset="0.410156"/><stop stop-opacity="1" stop-color="rgb(65.960693%, 22.503662%, 100%)" offset="0.414063"/><stop stop-opacity="1" stop-color="rgb(66.5802%, 21.961975%, 100%)" offset="0.417969"/><stop stop-opacity="1" stop-color="rgb(67.201233%, 21.420288%, 100%)" offset="0.421875"/><stop stop-opacity="1" stop-color="rgb(67.82074%, 20.878601%, 100%)" offset="0.425781"/><stop stop-opacity="1" stop-color="rgb(68.441772%, 20.336914%, 100%)" offset="0.429688"/><stop stop-opacity="1" stop-color="rgb(69.061279%, 19.795227%, 100%)" offset="0.433594"/><stop stop-opacity="1" stop-color="rgb(69.682312%, 19.25354%, 100%)" offset="0.4375"/><stop stop-opacity="1" stop-color="rgb(70.303345%, 18.711853%, 100%)" offset="0.441406"/><stop stop-opacity="1" stop-color="rgb(70.924377%, 18.171692%, 100%)" offset="0.445313"/><stop stop-opacity="1" stop-color="rgb(71.543884%, 17.630005%, 100%)" offset="0.449219"/><stop stop-opacity="1" stop-color="rgb(72.164917%, 17.088318%, 100%)" offset="0.453125"/><stop stop-opacity="1" stop-color="rgb(72.784424%, 16.546631%, 100%)" offset="0.457031"/><stop stop-opacity="1" stop-color="rgb(73.405457%, 16.004944%, 100%)" offset="0.460938"/><stop stop-opacity="1" stop-color="rgb(74.024963%, 15.463257%, 100%)" offset="0.464844"/><stop stop-opacity="1" stop-color="rgb(74.645996%, 14.92157%, 100%)" offset="0.46875"/><stop stop-opacity="1" stop-color="rgb(75.265503%, 14.379883%, 100%)" offset="0.472656"/><stop stop-opacity="1" stop-color="rgb(75.886536%, 13.838196%, 100%)" offset="0.476563"/><stop stop-opacity="1" stop-color="rgb(76.506042%, 13.296509%, 100%)" offset="0.480469"/><stop stop-opacity="1" stop-color="rgb(77.127075%, 12.754822%, 100%)" offset="0.484375"/><stop stop-opacity="1" stop-color="rgb(77.746582%, 12.213135%, 100%)" offset="0.488281"/><stop stop-opacity="1" stop-color="rgb(78.367615%, 11.672974%, 100%)" offset="0.492188"/><stop stop-opacity="1" stop-color="rgb(78.988647%, 11.131287%, 100%)" offset="0.496094"/><stop stop-opacity="1" stop-color="rgb(79.60968%, 10.5896%, 100%)" offset="0.5"/><stop stop-opacity="1" stop-color="rgb(77.876282%, 12.834167%, 99.389648%)" offset="0.503906"/><stop stop-opacity="1" stop-color="rgb(76.144409%, 15.078735%, 98.779297%)" offset="0.507812"/><stop stop-opacity="1" stop-color="rgb(74.411011%, 17.323303%, 98.168945%)" offset="0.511719"/><stop stop-opacity="1" stop-color="rgb(72.677612%, 19.567871%, 97.558594%)" offset="0.515625"/><stop stop-opacity="1" stop-color="rgb(70.944214%, 21.812439%, 96.948242%)" offset="0.519531"/><stop stop-opacity="1" stop-color="rgb(69.212341%, 24.057007%, 96.337891%)" offset="0.523438"/><stop stop-opacity="1" stop-color="rgb(67.478943%, 26.301575%, 95.727539%)" offset="0.527344"/><stop stop-opacity="1" stop-color="rgb(65.74707%, 28.547668%, 95.117188%)" offset="0.53125"/><stop stop-opacity="1" stop-color="rgb(64.013672%, 30.792236%, 94.506836%)" offset="0.535156"/><stop stop-opacity="1" stop-color="rgb(62.280273%, 33.036804%, 93.896484%)" offset="0.539062"/><stop stop-opacity="1" stop-color="rgb(60.546875%, 35.281372%, 93.286133%)" offset="0.542969"/><stop stop-opacity="1" stop-color="rgb(58.815002%, 37.52594%, 92.675781%)" offset="0.546875"/><stop stop-opacity="1" stop-color="rgb(57.081604%, 39.770508%, 92.06543%)" offset="0.550781"/><stop stop-opacity="1" stop-color="rgb(55.349731%, 42.015076%, 91.455078%)" offset="0.554688"/><stop stop-opacity="1" stop-color="rgb(53.616333%, 44.259644%, 90.844727%)" offset="0.558594"/><stop stop-opacity="1" stop-color="rgb(51.88446%, 46.505737%, 90.234375%)" offset="0.5625"/><stop stop-opacity="1" stop-color="rgb(50.151062%, 48.750305%, 89.624023%)" offset="0.566406"/><stop stop-opacity="1" stop-color="rgb(48.417664%, 50.994873%, 89.013672%)" offset="0.570313"/><stop stop-opacity="1" stop-color="rgb(46.684265%, 53.239441%, 88.40332%)" offset="0.574219"/><stop stop-opacity="1" stop-color="rgb(44.952393%, 55.484009%, 87.792969%)" offset="0.578125"/><stop stop-opacity="1" stop-color="rgb(43.218994%, 57.728577%, 87.182617%)" offset="0.582031"/><stop stop-opacity="1" stop-color="rgb(41.487122%, 59.97467%, 86.572266%)" offset="0.585938"/><stop stop-opacity="1" stop-color="rgb(39.753723%, 62.219238%, 85.961914%)" offset="0.589844"/><stop stop-opacity="1" stop-color="rgb(38.020325%, 64.463806%, 85.351562%)" offset="0.59375"/><stop stop-opacity="1" stop-color="rgb(36.286926%, 66.708374%, 84.741211%)" offset="0.597656"/><stop stop-opacity="1" stop-color="rgb(34.555054%, 68.952942%, 84.130859%)" offset="0.601562"/><stop stop-opacity="1" stop-color="rgb(32.821655%, 71.19751%, 83.520508%)" offset="0.605469"/><stop stop-opacity="1" stop-color="rgb(31.089783%, 73.442078%, 82.910156%)" offset="0.609375"/><stop stop-opacity="1" stop-color="rgb(29.356384%, 75.686646%, 82.299805%)" offset="0.613281"/><stop stop-opacity="1" stop-color="rgb(27.624512%, 77.932739%, 81.689453%)" offset="0.617188"/><stop stop-opacity="1" stop-color="rgb(25.891113%, 80.177307%, 81.079102%)" offset="0.621094"/><stop stop-opacity="1" stop-color="rgb(24.157715%, 82.421875%, 80.46875%)" offset="0.625"/><stop stop-opacity="1" stop-color="rgb(22.424316%, 84.666443%, 79.858398%)" offset="0.628906"/><stop stop-opacity="1" stop-color="rgb(20.692444%, 86.911011%, 79.248047%)" offset="0.632812"/><stop stop-opacity="1" stop-color="rgb(18.959045%, 89.155579%, 78.637695%)" offset="0.636719"/><stop stop-opacity="1" stop-color="rgb(17.227173%, 91.401672%, 78.027344%)" offset="0.640625"/><stop stop-opacity="1" stop-color="rgb(15.493774%, 93.64624%, 77.416992%)" offset="0.644531"/><stop stop-opacity="1" stop-color="rgb(13.760376%, 95.890808%, 76.806641%)" offset="0.648438"/><stop stop-opacity="1" stop-color="rgb(12.174988%, 97.944641%, 76.248169%)" offset="0.652344"/><stop stop-opacity="1" stop-color="rgb(10.5896%, 100%, 75.689697%)" offset="0.65625"/><stop stop-opacity="1" stop-color="rgb(10.5896%, 100%, 75.689697%)" offset="0.6875"/><stop stop-opacity="1" stop-color="rgb(10.5896%, 100%, 75.689697%)" offset="0.75"/><stop stop-opacity="1" stop-color="rgb(10.5896%, 100%, 75.689697%)" offset="1"/></linearGradient><clipPath id="7eaf4592c7"><rect x="0" width="336" y="0" height="266"/></clipPath><clipPath id="cf5aab4c26"><path d="M 0.273438 0.265625 L 335.074219 0.265625 L 335.074219 265.589844 L 0.273438 265.589844 Z M 0.273438 0.265625 " clip-rule="nonzero"/></clipPath><clipPath id="aa116cf9c9"><rect x="0" width="336" y="0" height="266"/></clipPath><clipPath id="fd9e762ba5"><rect x="0" width="336" y="0" height="266"/></clipPath><mask id="41303677c5"><g filter="url(#ad35284ecc)"><g><g clip-path="url(#fd9e762ba5)"><g clip-path="url(#cf5aab4c26)"><g><g clip-path="url(#aa116cf9c9)"><g fill="#000000" fill-opacity="1"><g transform="translate(123.0316, 162.379412)"><g><path d="M 1.890625 0 L 34.078125 0 L 34.078125 -7.578125 L 30.296875 -3.796875 L 15.140625 -3.796875 L 15.140625 -5.6875 L 35.984375 -26.5 L 35.984375 -41.640625 L 28.40625 -49.21875 L 11.375 -49.21875 L 3.796875 -41.640625 L 3.796875 -32.1875 L 17.03125 -45.421875 L 24.609375 -45.421875 L 26.5 -43.53125 L 26.5 -39.75 L 1.890625 -15.140625 Z M 1.890625 0 "/></g></g></g><g fill="#000000" fill-opacity="1"><g transform="translate(167.495687, 162.379412)"><g><path d="M 20.8125 -3.796875 L 11.375 -3.796875 L 15.140625 -5.6875 L 15.140625 -28.40625 L 11.375 -30.296875 L 20.8125 -30.296875 L 22.71875 -28.40625 L 22.71875 -5.6875 Z M 7.578125 0 L 30.296875 0 L 37.84375 -7.578125 L 37.84375 -26.5 L 30.296875 -34.078125 L 15.140625 -34.078125 L 15.140625 -43.53125 L 17.03125 -45.421875 L 30.296875 -45.421875 L 34.078125 -49.21875 L 9.46875 -49.21875 L 0 -39.75 L 0 -7.578125 Z M 7.578125 0 "/></g></g></g></g></g></g></g></g></g></mask><clipPath id="840f222e33"><path d="M 24.441406 0.265625 L 310.40625 0.265625 L 310.40625 265.589844 L 24.441406 265.589844 Z M 24.441406 0.265625 " clip-rule="nonzero"/></clipPath><clipPath id="e16d98b24f"><rect x="0" width="336" y="0" height="266"/></clipPath><clipPath id="78463058a9"><rect x="0" width="336" y="0" height="266"/></clipPath><clipPath id="44d053893e"><rect x="0" width="337" y="0" height="267"/></clipPath></defs><g transform="matrix(1, 0, 0, 1, 0, 0)"><g clip-path="url(#1cfd6459ac)"><g transform="matrix(1, 0, 0, 1, 0, 0)"><g clip-path="url(#f334616c2b)"><g mask="url(#a15d40060a)"><g transform="matrix(1, 0, 0, 1, 0, 0)"><g clip-path="url(#b966df6434)"><g clip-path="url(#4f28ff85fe)"><rect x="-201.3" fill="url(#68075186bd)" width="777.6" height="777.599981" y="-201.299995"/></g></g></g></g></g></g></g></g><g transform="matrix(1, 0, 0, 1, 0, 201)"><g clip-path="url(#b54e927c02)"><g clip-path="url(#8e7890b4f2)"><g transform="matrix(1, 0, 0, 1, 0, 1)"><g clip-path="url(#43989eb871)"><g clip-path="url(#3457e89cba)"><g mask="url(#daa976425c)"><g transform="matrix(1, 0, 0, 1, 0, -0.000000000000028422)"><g clip-path="url(#45b5f5552a)"><g clip-path="url(#dcb088f992)"><path fill="url(#1dd325d3c8)" d="M 42.59375 1.042969 L 42.59375 102.617188 L 333.074219 102.617188 L 333.074219 1.042969 Z M 42.59375 1.042969 " fill-rule="nonzero"/></g></g></g></g></g></g></g></g></g></g><g transform="matrix(1, 0, 0, 1, 19, 5)"><g clip-path="url(#44d053893e)"><g clip-path="url(#e925d2b4f6)"><g transform="matrix(1, 0, 0, 1, 1, 1)"><g clip-path="url(#78463058a9)"><g clip-path="url(#52cef6a3f4)"><g mask="url(#41303677c5)"><g><g clip-path="url(#e16d98b24f)"><g clip-path="url(#840f222e33)"><path fill="url(#1acce7884e)" d="M 24.441406 0.265625 L 24.441406 265.589844 L 310.40625 265.589844 L 310.40625 0.265625 Z M 24.441406 0.265625 " fill-rule="nonzero"/></g></g></g></g></g></g></g></g></g></g></svg>